<mxfile host="app.diagrams.net" modified="2023-08-11T05:29:52.723Z" agent="Mozilla/5.0 (X11; Linux x86_64) AppleWebKit/537.36 (KHTML, like Gecko) Chrome/115.0.0.0 Safari/537.36" etag="8-x8DJutjUqaRPW4fCsD" version="21.6.7" type="device" pages="6">
  <diagram name="Page-1" id="2rqyH7Yzq2qNoBsUG8sH">
    <mxGraphModel dx="879" dy="1444" grid="1" gridSize="10" guides="1" tooltips="1" connect="1" arrows="1" fold="1" page="1" pageScale="1" pageWidth="1100" pageHeight="850" math="0" shadow="0">
      <root>
        <mxCell id="0" />
        <mxCell id="1" parent="0" />
        <mxCell id="DMfylLcDTW-z94ok6k3l-1" value="" style="rounded=0;whiteSpace=wrap;html=1;" vertex="1" parent="1">
          <mxGeometry x="270" y="40" width="610" height="460" as="geometry" />
        </mxCell>
        <mxCell id="DMfylLcDTW-z94ok6k3l-2" value="" style="rounded=0;whiteSpace=wrap;html=1;" vertex="1" parent="1">
          <mxGeometry x="40" y="40" width="230" height="460" as="geometry" />
        </mxCell>
        <mxCell id="DMfylLcDTW-z94ok6k3l-3" value="main thread" style="shape=hexagon;perimeter=hexagonPerimeter2;whiteSpace=wrap;html=1;fixedSize=1;fontFamily=Ubuntu;fontSource=https%3A%2F%2Ffonts.googleapis.com%2Fcss%3Ffamily%3DUbuntu;fontSize=17;" vertex="1" parent="1">
          <mxGeometry x="110" y="-20" width="120" height="50" as="geometry" />
        </mxCell>
        <mxCell id="DMfylLcDTW-z94ok6k3l-4" value="" style="rounded=0;whiteSpace=wrap;html=1;fillColor=#d5e8d4;strokeColor=#82b366;strokeWidth=11;" vertex="1" parent="1">
          <mxGeometry x="40" y="300" width="230" height="200" as="geometry" />
        </mxCell>
        <mxCell id="DMfylLcDTW-z94ok6k3l-5" value="main()" style="text;html=1;strokeColor=none;fillColor=none;align=center;verticalAlign=middle;whiteSpace=wrap;rounded=0;fontFamily=Ubuntu;fontSource=https%3A%2F%2Ffonts.googleapis.com%2Fcss%3Ffamily%3DUbuntu;fontSize=16;rotation=-90;" vertex="1" parent="1">
          <mxGeometry x="-10" y="370" width="60" height="30" as="geometry" />
        </mxCell>
        <mxCell id="DMfylLcDTW-z94ok6k3l-6" value="STACK" style="text;html=1;strokeColor=none;fillColor=none;align=center;verticalAlign=middle;whiteSpace=wrap;rounded=0;fontFamily=Ubuntu;fontSource=https%3A%2F%2Ffonts.googleapis.com%2Fcss%3Ffamily%3DUbuntu;fontSize=16;fontStyle=1" vertex="1" parent="1">
          <mxGeometry x="125" y="510" width="60" height="30" as="geometry" />
        </mxCell>
        <mxCell id="DMfylLcDTW-z94ok6k3l-7" value="HEAP" style="text;html=1;strokeColor=none;fillColor=none;align=center;verticalAlign=middle;whiteSpace=wrap;rounded=0;fontFamily=Ubuntu;fontSource=https%3A%2F%2Ffonts.googleapis.com%2Fcss%3Ffamily%3DUbuntu;fontSize=16;fontStyle=1" vertex="1" parent="1">
          <mxGeometry x="520" y="510" width="60" height="30" as="geometry" />
        </mxCell>
        <mxCell id="DMfylLcDTW-z94ok6k3l-8" value="int myInt = 10" style="rounded=0;whiteSpace=wrap;html=1;fontFamily=Ubuntu;fontSource=https%3A%2F%2Ffonts.googleapis.com%2Fcss%3Ffamily%3DUbuntu;fontSize=17;" vertex="1" parent="1">
          <mxGeometry x="40" y="300" width="230" height="40" as="geometry" />
        </mxCell>
        <mxCell id="DMfylLcDTW-z94ok6k3l-9" value="int[] myArray" style="rounded=0;whiteSpace=wrap;html=1;fontFamily=Ubuntu;fontSource=https%3A%2F%2Ffonts.googleapis.com%2Fcss%3Ffamily%3DUbuntu;fontSize=17;" vertex="1" parent="1">
          <mxGeometry x="40" y="340" width="230" height="40" as="geometry" />
        </mxCell>
        <mxCell id="DMfylLcDTW-z94ok6k3l-10" value="int[] nums" style="rounded=0;whiteSpace=wrap;html=1;fontFamily=Ubuntu;fontSource=https%3A%2F%2Ffonts.googleapis.com%2Fcss%3Ffamily%3DUbuntu;fontSize=17;" vertex="1" parent="1">
          <mxGeometry x="40" y="380" width="230" height="40" as="geometry" />
        </mxCell>
        <mxCell id="DMfylLcDTW-z94ok6k3l-11" value="int i" style="rounded=0;whiteSpace=wrap;html=1;fontFamily=Ubuntu;fontSource=https%3A%2F%2Ffonts.googleapis.com%2Fcss%3Ffamily%3DUbuntu;fontSize=17;" vertex="1" parent="1">
          <mxGeometry x="40" y="420" width="230" height="40" as="geometry" />
        </mxCell>
        <mxCell id="DMfylLcDTW-z94ok6k3l-12" value="..." style="rounded=0;whiteSpace=wrap;html=1;fontFamily=Ubuntu;fontSource=https%3A%2F%2Ffonts.googleapis.com%2Fcss%3Ffamily%3DUbuntu;fontSize=17;" vertex="1" parent="1">
          <mxGeometry x="40" y="460" width="230" height="40" as="geometry" />
        </mxCell>
        <mxCell id="DMfylLcDTW-z94ok6k3l-13" value="0" style="rounded=0;whiteSpace=wrap;html=1;fontSize=18;" vertex="1" parent="1">
          <mxGeometry x="440" y="110" width="40" height="40" as="geometry" />
        </mxCell>
        <mxCell id="DMfylLcDTW-z94ok6k3l-14" value="0" style="rounded=0;whiteSpace=wrap;html=1;fontSize=18;" vertex="1" parent="1">
          <mxGeometry x="480" y="110" width="40" height="40" as="geometry" />
        </mxCell>
        <mxCell id="DMfylLcDTW-z94ok6k3l-15" value="0" style="rounded=0;whiteSpace=wrap;html=1;fontSize=18;" vertex="1" parent="1">
          <mxGeometry x="520" y="110" width="40" height="40" as="geometry" />
        </mxCell>
        <mxCell id="DMfylLcDTW-z94ok6k3l-16" value="0" style="rounded=0;whiteSpace=wrap;html=1;fontSize=18;" vertex="1" parent="1">
          <mxGeometry x="560" y="110" width="40" height="40" as="geometry" />
        </mxCell>
        <mxCell id="DMfylLcDTW-z94ok6k3l-17" value="0" style="rounded=0;whiteSpace=wrap;html=1;fontSize=18;" vertex="1" parent="1">
          <mxGeometry x="600" y="110" width="40" height="40" as="geometry" />
        </mxCell>
        <mxCell id="DMfylLcDTW-z94ok6k3l-18" value="0" style="rounded=0;whiteSpace=wrap;html=1;fontSize=18;fillColor=#d5e8d4;strokeColor=#82b366;" vertex="1" parent="1">
          <mxGeometry x="440" y="90" width="40" height="20" as="geometry" />
        </mxCell>
        <mxCell id="DMfylLcDTW-z94ok6k3l-19" value="1" style="rounded=0;whiteSpace=wrap;html=1;fontSize=18;fillColor=#d5e8d4;strokeColor=#82b366;" vertex="1" parent="1">
          <mxGeometry x="480" y="90" width="40" height="20" as="geometry" />
        </mxCell>
        <mxCell id="DMfylLcDTW-z94ok6k3l-20" value="2" style="rounded=0;whiteSpace=wrap;html=1;fontSize=18;fillColor=#d5e8d4;strokeColor=#82b366;" vertex="1" parent="1">
          <mxGeometry x="520" y="90" width="40" height="20" as="geometry" />
        </mxCell>
        <mxCell id="DMfylLcDTW-z94ok6k3l-21" value="3" style="rounded=0;whiteSpace=wrap;html=1;fontSize=18;fillColor=#d5e8d4;strokeColor=#82b366;" vertex="1" parent="1">
          <mxGeometry x="560" y="90" width="40" height="20" as="geometry" />
        </mxCell>
        <mxCell id="DMfylLcDTW-z94ok6k3l-22" value="4" style="rounded=0;whiteSpace=wrap;html=1;fontSize=18;fillColor=#d5e8d4;strokeColor=#82b366;" vertex="1" parent="1">
          <mxGeometry x="600" y="90" width="40" height="20" as="geometry" />
        </mxCell>
        <mxCell id="DMfylLcDTW-z94ok6k3l-23" value="int length = 5" style="rounded=0;whiteSpace=wrap;html=1;fontSize=17;fontFamily=Ubuntu;fontSource=https%3A%2F%2Ffonts.googleapis.com%2Fcss%3Ffamily%3DUbuntu;" vertex="1" parent="1">
          <mxGeometry x="440" y="150" width="200" height="30" as="geometry" />
        </mxCell>
        <mxCell id="DMfylLcDTW-z94ok6k3l-24" value="..." style="rounded=0;whiteSpace=wrap;html=1;fontSize=17;fontFamily=Ubuntu;fontSource=https%3A%2F%2Ffonts.googleapis.com%2Fcss%3Ffamily%3DUbuntu;" vertex="1" parent="1">
          <mxGeometry x="440" y="180" width="200" height="30" as="geometry" />
        </mxCell>
      </root>
    </mxGraphModel>
  </diagram>
  <diagram name="Page-2" id="5Hj4mRGi06buR5fF_Hgx">
    <mxGraphModel dx="879" dy="1444" grid="1" gridSize="10" guides="1" tooltips="1" connect="1" arrows="1" fold="1" page="1" pageScale="1" pageWidth="1100" pageHeight="850" math="0" shadow="0">
      <root>
        <mxCell id="x6j3JOI_eki8BOceeuyH-0" />
        <mxCell id="x6j3JOI_eki8BOceeuyH-1" parent="x6j3JOI_eki8BOceeuyH-0" />
        <mxCell id="x6j3JOI_eki8BOceeuyH-2" value="" style="rounded=0;whiteSpace=wrap;html=1;" vertex="1" parent="x6j3JOI_eki8BOceeuyH-1">
          <mxGeometry x="270" y="40" width="610" height="460" as="geometry" />
        </mxCell>
        <mxCell id="x6j3JOI_eki8BOceeuyH-3" value="" style="rounded=0;whiteSpace=wrap;html=1;" vertex="1" parent="x6j3JOI_eki8BOceeuyH-1">
          <mxGeometry x="40" y="40" width="230" height="460" as="geometry" />
        </mxCell>
        <mxCell id="x6j3JOI_eki8BOceeuyH-4" value="main thread" style="shape=hexagon;perimeter=hexagonPerimeter2;whiteSpace=wrap;html=1;fixedSize=1;fontFamily=Ubuntu;fontSource=https%3A%2F%2Ffonts.googleapis.com%2Fcss%3Ffamily%3DUbuntu;fontSize=17;" vertex="1" parent="x6j3JOI_eki8BOceeuyH-1">
          <mxGeometry x="110" y="-20" width="120" height="50" as="geometry" />
        </mxCell>
        <mxCell id="x6j3JOI_eki8BOceeuyH-5" value="" style="rounded=0;whiteSpace=wrap;html=1;fillColor=#d5e8d4;strokeColor=#82b366;strokeWidth=11;" vertex="1" parent="x6j3JOI_eki8BOceeuyH-1">
          <mxGeometry x="40" y="300" width="230" height="200" as="geometry" />
        </mxCell>
        <mxCell id="x6j3JOI_eki8BOceeuyH-6" value="main()" style="text;html=1;strokeColor=none;fillColor=none;align=center;verticalAlign=middle;whiteSpace=wrap;rounded=0;fontFamily=Ubuntu;fontSource=https%3A%2F%2Ffonts.googleapis.com%2Fcss%3Ffamily%3DUbuntu;fontSize=16;rotation=-90;" vertex="1" parent="x6j3JOI_eki8BOceeuyH-1">
          <mxGeometry x="-10" y="370" width="60" height="30" as="geometry" />
        </mxCell>
        <mxCell id="x6j3JOI_eki8BOceeuyH-7" value="STACK" style="text;html=1;strokeColor=none;fillColor=none;align=center;verticalAlign=middle;whiteSpace=wrap;rounded=0;fontFamily=Ubuntu;fontSource=https%3A%2F%2Ffonts.googleapis.com%2Fcss%3Ffamily%3DUbuntu;fontSize=16;fontStyle=1" vertex="1" parent="x6j3JOI_eki8BOceeuyH-1">
          <mxGeometry x="125" y="510" width="60" height="30" as="geometry" />
        </mxCell>
        <mxCell id="x6j3JOI_eki8BOceeuyH-8" value="HEAP" style="text;html=1;strokeColor=none;fillColor=none;align=center;verticalAlign=middle;whiteSpace=wrap;rounded=0;fontFamily=Ubuntu;fontSource=https%3A%2F%2Ffonts.googleapis.com%2Fcss%3Ffamily%3DUbuntu;fontSize=16;fontStyle=1" vertex="1" parent="x6j3JOI_eki8BOceeuyH-1">
          <mxGeometry x="520" y="510" width="60" height="30" as="geometry" />
        </mxCell>
        <mxCell id="x6j3JOI_eki8BOceeuyH-9" value="int myInt = 10" style="rounded=0;whiteSpace=wrap;html=1;fontFamily=Ubuntu;fontSource=https%3A%2F%2Ffonts.googleapis.com%2Fcss%3Ffamily%3DUbuntu;fontSize=17;" vertex="1" parent="x6j3JOI_eki8BOceeuyH-1">
          <mxGeometry x="40" y="300" width="230" height="40" as="geometry" />
        </mxCell>
        <mxCell id="GBRQJJT5ANcsHe3tYl_I-1" style="edgeStyle=orthogonalEdgeStyle;rounded=0;orthogonalLoop=1;jettySize=auto;html=1;entryX=0;entryY=0.25;entryDx=0;entryDy=0;" edge="1" parent="x6j3JOI_eki8BOceeuyH-1" source="x6j3JOI_eki8BOceeuyH-10" target="GBRQJJT5ANcsHe3tYl_I-0">
          <mxGeometry relative="1" as="geometry" />
        </mxCell>
        <mxCell id="x6j3JOI_eki8BOceeuyH-10" value="int[] myArray = 0xAF10" style="rounded=0;whiteSpace=wrap;html=1;fontFamily=Ubuntu;fontSource=https%3A%2F%2Ffonts.googleapis.com%2Fcss%3Ffamily%3DUbuntu;fontSize=17;" vertex="1" parent="x6j3JOI_eki8BOceeuyH-1">
          <mxGeometry x="40" y="340" width="230" height="40" as="geometry" />
        </mxCell>
        <mxCell id="x6j3JOI_eki8BOceeuyH-11" value="int[] nums" style="rounded=0;whiteSpace=wrap;html=1;fontFamily=Ubuntu;fontSource=https%3A%2F%2Ffonts.googleapis.com%2Fcss%3Ffamily%3DUbuntu;fontSize=17;" vertex="1" parent="x6j3JOI_eki8BOceeuyH-1">
          <mxGeometry x="40" y="380" width="230" height="40" as="geometry" />
        </mxCell>
        <mxCell id="x6j3JOI_eki8BOceeuyH-12" value="int i" style="rounded=0;whiteSpace=wrap;html=1;fontFamily=Ubuntu;fontSource=https%3A%2F%2Ffonts.googleapis.com%2Fcss%3Ffamily%3DUbuntu;fontSize=17;" vertex="1" parent="x6j3JOI_eki8BOceeuyH-1">
          <mxGeometry x="40" y="420" width="230" height="40" as="geometry" />
        </mxCell>
        <mxCell id="x6j3JOI_eki8BOceeuyH-13" value="..." style="rounded=0;whiteSpace=wrap;html=1;fontFamily=Ubuntu;fontSource=https%3A%2F%2Ffonts.googleapis.com%2Fcss%3Ffamily%3DUbuntu;fontSize=17;" vertex="1" parent="x6j3JOI_eki8BOceeuyH-1">
          <mxGeometry x="40" y="460" width="230" height="40" as="geometry" />
        </mxCell>
        <mxCell id="x6j3JOI_eki8BOceeuyH-14" value="10" style="rounded=0;whiteSpace=wrap;html=1;fontSize=18;" vertex="1" parent="x6j3JOI_eki8BOceeuyH-1">
          <mxGeometry x="440" y="110" width="40" height="40" as="geometry" />
        </mxCell>
        <mxCell id="x6j3JOI_eki8BOceeuyH-15" value="20" style="rounded=0;whiteSpace=wrap;html=1;fontSize=18;" vertex="1" parent="x6j3JOI_eki8BOceeuyH-1">
          <mxGeometry x="480" y="110" width="40" height="40" as="geometry" />
        </mxCell>
        <mxCell id="x6j3JOI_eki8BOceeuyH-16" value="30" style="rounded=0;whiteSpace=wrap;html=1;fontSize=18;" vertex="1" parent="x6j3JOI_eki8BOceeuyH-1">
          <mxGeometry x="520" y="110" width="40" height="40" as="geometry" />
        </mxCell>
        <mxCell id="x6j3JOI_eki8BOceeuyH-17" value="10" style="rounded=0;whiteSpace=wrap;html=1;fontSize=18;" vertex="1" parent="x6j3JOI_eki8BOceeuyH-1">
          <mxGeometry x="560" y="110" width="40" height="40" as="geometry" />
        </mxCell>
        <mxCell id="x6j3JOI_eki8BOceeuyH-18" value="50" style="rounded=0;whiteSpace=wrap;html=1;fontSize=18;" vertex="1" parent="x6j3JOI_eki8BOceeuyH-1">
          <mxGeometry x="600" y="110" width="40" height="40" as="geometry" />
        </mxCell>
        <mxCell id="x6j3JOI_eki8BOceeuyH-19" value="0" style="rounded=0;whiteSpace=wrap;html=1;fontSize=18;fillColor=#d5e8d4;strokeColor=#82b366;" vertex="1" parent="x6j3JOI_eki8BOceeuyH-1">
          <mxGeometry x="440" y="90" width="40" height="20" as="geometry" />
        </mxCell>
        <mxCell id="x6j3JOI_eki8BOceeuyH-20" value="1" style="rounded=0;whiteSpace=wrap;html=1;fontSize=18;fillColor=#d5e8d4;strokeColor=#82b366;" vertex="1" parent="x6j3JOI_eki8BOceeuyH-1">
          <mxGeometry x="480" y="90" width="40" height="20" as="geometry" />
        </mxCell>
        <mxCell id="x6j3JOI_eki8BOceeuyH-21" value="2" style="rounded=0;whiteSpace=wrap;html=1;fontSize=18;fillColor=#d5e8d4;strokeColor=#82b366;" vertex="1" parent="x6j3JOI_eki8BOceeuyH-1">
          <mxGeometry x="520" y="90" width="40" height="20" as="geometry" />
        </mxCell>
        <mxCell id="x6j3JOI_eki8BOceeuyH-22" value="3" style="rounded=0;whiteSpace=wrap;html=1;fontSize=18;fillColor=#d5e8d4;strokeColor=#82b366;" vertex="1" parent="x6j3JOI_eki8BOceeuyH-1">
          <mxGeometry x="560" y="90" width="40" height="20" as="geometry" />
        </mxCell>
        <mxCell id="x6j3JOI_eki8BOceeuyH-23" value="4" style="rounded=0;whiteSpace=wrap;html=1;fontSize=18;fillColor=#d5e8d4;strokeColor=#82b366;" vertex="1" parent="x6j3JOI_eki8BOceeuyH-1">
          <mxGeometry x="600" y="90" width="40" height="20" as="geometry" />
        </mxCell>
        <mxCell id="x6j3JOI_eki8BOceeuyH-24" value="int length = 5" style="rounded=0;whiteSpace=wrap;html=1;fontSize=17;fontFamily=Ubuntu;fontSource=https%3A%2F%2Ffonts.googleapis.com%2Fcss%3Ffamily%3DUbuntu;" vertex="1" parent="x6j3JOI_eki8BOceeuyH-1">
          <mxGeometry x="440" y="150" width="200" height="30" as="geometry" />
        </mxCell>
        <mxCell id="x6j3JOI_eki8BOceeuyH-25" value="..." style="rounded=0;whiteSpace=wrap;html=1;fontSize=17;fontFamily=Ubuntu;fontSource=https%3A%2F%2Ffonts.googleapis.com%2Fcss%3Ffamily%3DUbuntu;" vertex="1" parent="x6j3JOI_eki8BOceeuyH-1">
          <mxGeometry x="440" y="180" width="200" height="30" as="geometry" />
        </mxCell>
        <mxCell id="GBRQJJT5ANcsHe3tYl_I-0" value="0xAF10" style="text;html=1;strokeColor=#6c8ebf;fillColor=#dae8fc;align=center;verticalAlign=middle;whiteSpace=wrap;rounded=0;fontFamily=Ubuntu;fontSource=https%3A%2F%2Ffonts.googleapis.com%2Fcss%3Ffamily%3DUbuntu;fontSize=17;" vertex="1" parent="x6j3JOI_eki8BOceeuyH-1">
          <mxGeometry x="440" y="60" width="200" height="30" as="geometry" />
        </mxCell>
        <mxCell id="GBRQJJT5ANcsHe3tYl_I-2" value="0" style="rounded=0;whiteSpace=wrap;html=1;fontSize=18;" vertex="1" parent="x6j3JOI_eki8BOceeuyH-1">
          <mxGeometry x="440" y="310" width="40" height="40" as="geometry" />
        </mxCell>
        <mxCell id="GBRQJJT5ANcsHe3tYl_I-3" value="0" style="rounded=0;whiteSpace=wrap;html=1;fontSize=18;" vertex="1" parent="x6j3JOI_eki8BOceeuyH-1">
          <mxGeometry x="480" y="310" width="40" height="40" as="geometry" />
        </mxCell>
        <mxCell id="GBRQJJT5ANcsHe3tYl_I-4" value="0" style="rounded=0;whiteSpace=wrap;html=1;fontSize=18;" vertex="1" parent="x6j3JOI_eki8BOceeuyH-1">
          <mxGeometry x="520" y="310" width="40" height="40" as="geometry" />
        </mxCell>
        <mxCell id="GBRQJJT5ANcsHe3tYl_I-5" value="0" style="rounded=0;whiteSpace=wrap;html=1;fontSize=18;" vertex="1" parent="x6j3JOI_eki8BOceeuyH-1">
          <mxGeometry x="560" y="310" width="40" height="40" as="geometry" />
        </mxCell>
        <mxCell id="GBRQJJT5ANcsHe3tYl_I-6" value="0" style="rounded=0;whiteSpace=wrap;html=1;fontSize=18;" vertex="1" parent="x6j3JOI_eki8BOceeuyH-1">
          <mxGeometry x="600" y="310" width="40" height="40" as="geometry" />
        </mxCell>
        <mxCell id="GBRQJJT5ANcsHe3tYl_I-7" value="0" style="rounded=0;whiteSpace=wrap;html=1;fontSize=18;fillColor=#d5e8d4;strokeColor=#82b366;" vertex="1" parent="x6j3JOI_eki8BOceeuyH-1">
          <mxGeometry x="440" y="290" width="40" height="20" as="geometry" />
        </mxCell>
        <mxCell id="GBRQJJT5ANcsHe3tYl_I-8" value="1" style="rounded=0;whiteSpace=wrap;html=1;fontSize=18;fillColor=#d5e8d4;strokeColor=#82b366;" vertex="1" parent="x6j3JOI_eki8BOceeuyH-1">
          <mxGeometry x="480" y="290" width="40" height="20" as="geometry" />
        </mxCell>
        <mxCell id="GBRQJJT5ANcsHe3tYl_I-9" value="2" style="rounded=0;whiteSpace=wrap;html=1;fontSize=18;fillColor=#d5e8d4;strokeColor=#82b366;" vertex="1" parent="x6j3JOI_eki8BOceeuyH-1">
          <mxGeometry x="520" y="290" width="40" height="20" as="geometry" />
        </mxCell>
        <mxCell id="GBRQJJT5ANcsHe3tYl_I-10" value="3" style="rounded=0;whiteSpace=wrap;html=1;fontSize=18;fillColor=#d5e8d4;strokeColor=#82b366;" vertex="1" parent="x6j3JOI_eki8BOceeuyH-1">
          <mxGeometry x="560" y="290" width="40" height="20" as="geometry" />
        </mxCell>
        <mxCell id="GBRQJJT5ANcsHe3tYl_I-11" value="4" style="rounded=0;whiteSpace=wrap;html=1;fontSize=18;fillColor=#d5e8d4;strokeColor=#82b366;" vertex="1" parent="x6j3JOI_eki8BOceeuyH-1">
          <mxGeometry x="600" y="290" width="40" height="20" as="geometry" />
        </mxCell>
        <mxCell id="GBRQJJT5ANcsHe3tYl_I-12" value="int length = 5" style="rounded=0;whiteSpace=wrap;html=1;fontSize=17;fontFamily=Ubuntu;fontSource=https%3A%2F%2Ffonts.googleapis.com%2Fcss%3Ffamily%3DUbuntu;" vertex="1" parent="x6j3JOI_eki8BOceeuyH-1">
          <mxGeometry x="440" y="350" width="200" height="30" as="geometry" />
        </mxCell>
        <mxCell id="GBRQJJT5ANcsHe3tYl_I-13" value="..." style="rounded=0;whiteSpace=wrap;html=1;fontSize=17;fontFamily=Ubuntu;fontSource=https%3A%2F%2Ffonts.googleapis.com%2Fcss%3Ffamily%3DUbuntu;" vertex="1" parent="x6j3JOI_eki8BOceeuyH-1">
          <mxGeometry x="440" y="380" width="200" height="30" as="geometry" />
        </mxCell>
        <mxCell id="GBRQJJT5ANcsHe3tYl_I-14" value="0xAF11" style="text;html=1;strokeColor=#6c8ebf;fillColor=#dae8fc;align=center;verticalAlign=middle;whiteSpace=wrap;rounded=0;fontFamily=Ubuntu;fontSource=https%3A%2F%2Ffonts.googleapis.com%2Fcss%3Ffamily%3DUbuntu;fontSize=17;" vertex="1" parent="x6j3JOI_eki8BOceeuyH-1">
          <mxGeometry x="440" y="260" width="200" height="30" as="geometry" />
        </mxCell>
      </root>
    </mxGraphModel>
  </diagram>
  <diagram name="Page-3" id="BhBRDOSso574JcSGHMRm">
    <mxGraphModel dx="879" dy="1444" grid="1" gridSize="10" guides="1" tooltips="1" connect="1" arrows="1" fold="1" page="1" pageScale="1" pageWidth="1100" pageHeight="850" math="0" shadow="0">
      <root>
        <mxCell id="oITcM-gIP-XaoDnhHXlV-0" />
        <mxCell id="oITcM-gIP-XaoDnhHXlV-1" parent="oITcM-gIP-XaoDnhHXlV-0" />
        <mxCell id="oITcM-gIP-XaoDnhHXlV-2" value="" style="rounded=0;whiteSpace=wrap;html=1;" vertex="1" parent="oITcM-gIP-XaoDnhHXlV-1">
          <mxGeometry x="270" y="40" width="610" height="460" as="geometry" />
        </mxCell>
        <mxCell id="oITcM-gIP-XaoDnhHXlV-3" value="" style="rounded=0;whiteSpace=wrap;html=1;" vertex="1" parent="oITcM-gIP-XaoDnhHXlV-1">
          <mxGeometry x="40" y="40" width="230" height="460" as="geometry" />
        </mxCell>
        <mxCell id="oITcM-gIP-XaoDnhHXlV-4" value="main thread" style="shape=hexagon;perimeter=hexagonPerimeter2;whiteSpace=wrap;html=1;fixedSize=1;fontFamily=Ubuntu;fontSource=https%3A%2F%2Ffonts.googleapis.com%2Fcss%3Ffamily%3DUbuntu;fontSize=17;" vertex="1" parent="oITcM-gIP-XaoDnhHXlV-1">
          <mxGeometry x="110" y="-20" width="120" height="50" as="geometry" />
        </mxCell>
        <mxCell id="oITcM-gIP-XaoDnhHXlV-5" value="" style="rounded=0;whiteSpace=wrap;html=1;fillColor=#d5e8d4;strokeColor=#82b366;strokeWidth=11;" vertex="1" parent="oITcM-gIP-XaoDnhHXlV-1">
          <mxGeometry x="40" y="300" width="230" height="200" as="geometry" />
        </mxCell>
        <mxCell id="oITcM-gIP-XaoDnhHXlV-6" value="main()" style="text;html=1;strokeColor=none;fillColor=none;align=center;verticalAlign=middle;whiteSpace=wrap;rounded=0;fontFamily=Ubuntu;fontSource=https%3A%2F%2Ffonts.googleapis.com%2Fcss%3Ffamily%3DUbuntu;fontSize=16;rotation=-90;" vertex="1" parent="oITcM-gIP-XaoDnhHXlV-1">
          <mxGeometry x="-10" y="370" width="60" height="30" as="geometry" />
        </mxCell>
        <mxCell id="oITcM-gIP-XaoDnhHXlV-7" value="STACK" style="text;html=1;strokeColor=none;fillColor=none;align=center;verticalAlign=middle;whiteSpace=wrap;rounded=0;fontFamily=Ubuntu;fontSource=https%3A%2F%2Ffonts.googleapis.com%2Fcss%3Ffamily%3DUbuntu;fontSize=16;fontStyle=1" vertex="1" parent="oITcM-gIP-XaoDnhHXlV-1">
          <mxGeometry x="125" y="510" width="60" height="30" as="geometry" />
        </mxCell>
        <mxCell id="oITcM-gIP-XaoDnhHXlV-8" value="HEAP" style="text;html=1;strokeColor=none;fillColor=none;align=center;verticalAlign=middle;whiteSpace=wrap;rounded=0;fontFamily=Ubuntu;fontSource=https%3A%2F%2Ffonts.googleapis.com%2Fcss%3Ffamily%3DUbuntu;fontSize=16;fontStyle=1" vertex="1" parent="oITcM-gIP-XaoDnhHXlV-1">
          <mxGeometry x="520" y="510" width="60" height="30" as="geometry" />
        </mxCell>
        <mxCell id="oITcM-gIP-XaoDnhHXlV-9" value="int myInt = 10" style="rounded=0;whiteSpace=wrap;html=1;fontFamily=Ubuntu;fontSource=https%3A%2F%2Ffonts.googleapis.com%2Fcss%3Ffamily%3DUbuntu;fontSize=17;" vertex="1" parent="oITcM-gIP-XaoDnhHXlV-1">
          <mxGeometry x="40" y="300" width="230" height="40" as="geometry" />
        </mxCell>
        <mxCell id="oITcM-gIP-XaoDnhHXlV-10" style="edgeStyle=orthogonalEdgeStyle;rounded=0;orthogonalLoop=1;jettySize=auto;html=1;entryX=0;entryY=0.25;entryDx=0;entryDy=0;" edge="1" parent="oITcM-gIP-XaoDnhHXlV-1" source="oITcM-gIP-XaoDnhHXlV-11" target="oITcM-gIP-XaoDnhHXlV-27">
          <mxGeometry relative="1" as="geometry" />
        </mxCell>
        <mxCell id="oITcM-gIP-XaoDnhHXlV-11" value="int[] myArray = 0xAF10" style="rounded=0;whiteSpace=wrap;html=1;fontFamily=Ubuntu;fontSource=https%3A%2F%2Ffonts.googleapis.com%2Fcss%3Ffamily%3DUbuntu;fontSize=17;" vertex="1" parent="oITcM-gIP-XaoDnhHXlV-1">
          <mxGeometry x="40" y="340" width="230" height="40" as="geometry" />
        </mxCell>
        <mxCell id="NL1UsXUCdbLS6eXWeX1W-0" style="edgeStyle=orthogonalEdgeStyle;rounded=0;orthogonalLoop=1;jettySize=auto;html=1;entryX=0;entryY=0.5;entryDx=0;entryDy=0;" edge="1" parent="oITcM-gIP-XaoDnhHXlV-1" source="oITcM-gIP-XaoDnhHXlV-12" target="oITcM-gIP-XaoDnhHXlV-40">
          <mxGeometry relative="1" as="geometry">
            <Array as="points">
              <mxPoint x="400" y="400" />
              <mxPoint x="400" y="275" />
            </Array>
          </mxGeometry>
        </mxCell>
        <mxCell id="oITcM-gIP-XaoDnhHXlV-12" value="int[] nums = 0xAF11" style="rounded=0;whiteSpace=wrap;html=1;fontFamily=Ubuntu;fontSource=https%3A%2F%2Ffonts.googleapis.com%2Fcss%3Ffamily%3DUbuntu;fontSize=17;" vertex="1" parent="oITcM-gIP-XaoDnhHXlV-1">
          <mxGeometry x="40" y="380" width="230" height="40" as="geometry" />
        </mxCell>
        <mxCell id="oITcM-gIP-XaoDnhHXlV-13" value="int i = 0" style="rounded=0;whiteSpace=wrap;html=1;fontFamily=Ubuntu;fontSource=https%3A%2F%2Ffonts.googleapis.com%2Fcss%3Ffamily%3DUbuntu;fontSize=17;" vertex="1" parent="oITcM-gIP-XaoDnhHXlV-1">
          <mxGeometry x="40" y="420" width="230" height="40" as="geometry" />
        </mxCell>
        <mxCell id="oITcM-gIP-XaoDnhHXlV-14" value="..." style="rounded=0;whiteSpace=wrap;html=1;fontFamily=Ubuntu;fontSource=https%3A%2F%2Ffonts.googleapis.com%2Fcss%3Ffamily%3DUbuntu;fontSize=17;" vertex="1" parent="oITcM-gIP-XaoDnhHXlV-1">
          <mxGeometry x="40" y="460" width="230" height="40" as="geometry" />
        </mxCell>
        <mxCell id="oITcM-gIP-XaoDnhHXlV-15" value="1" style="rounded=0;whiteSpace=wrap;html=1;fontSize=18;" vertex="1" parent="oITcM-gIP-XaoDnhHXlV-1">
          <mxGeometry x="440" y="110" width="40" height="40" as="geometry" />
        </mxCell>
        <mxCell id="oITcM-gIP-XaoDnhHXlV-16" value="20" style="rounded=0;whiteSpace=wrap;html=1;fontSize=18;" vertex="1" parent="oITcM-gIP-XaoDnhHXlV-1">
          <mxGeometry x="480" y="110" width="40" height="40" as="geometry" />
        </mxCell>
        <mxCell id="oITcM-gIP-XaoDnhHXlV-17" value="30" style="rounded=0;whiteSpace=wrap;html=1;fontSize=18;" vertex="1" parent="oITcM-gIP-XaoDnhHXlV-1">
          <mxGeometry x="520" y="110" width="40" height="40" as="geometry" />
        </mxCell>
        <mxCell id="oITcM-gIP-XaoDnhHXlV-18" value="10" style="rounded=0;whiteSpace=wrap;html=1;fontSize=18;" vertex="1" parent="oITcM-gIP-XaoDnhHXlV-1">
          <mxGeometry x="560" y="110" width="40" height="40" as="geometry" />
        </mxCell>
        <mxCell id="oITcM-gIP-XaoDnhHXlV-19" value="50" style="rounded=0;whiteSpace=wrap;html=1;fontSize=18;" vertex="1" parent="oITcM-gIP-XaoDnhHXlV-1">
          <mxGeometry x="600" y="110" width="40" height="40" as="geometry" />
        </mxCell>
        <mxCell id="oITcM-gIP-XaoDnhHXlV-20" value="0" style="rounded=0;whiteSpace=wrap;html=1;fontSize=18;fillColor=#d5e8d4;strokeColor=#82b366;" vertex="1" parent="oITcM-gIP-XaoDnhHXlV-1">
          <mxGeometry x="440" y="90" width="40" height="20" as="geometry" />
        </mxCell>
        <mxCell id="oITcM-gIP-XaoDnhHXlV-21" value="1" style="rounded=0;whiteSpace=wrap;html=1;fontSize=18;fillColor=#d5e8d4;strokeColor=#82b366;" vertex="1" parent="oITcM-gIP-XaoDnhHXlV-1">
          <mxGeometry x="480" y="90" width="40" height="20" as="geometry" />
        </mxCell>
        <mxCell id="oITcM-gIP-XaoDnhHXlV-22" value="2" style="rounded=0;whiteSpace=wrap;html=1;fontSize=18;fillColor=#d5e8d4;strokeColor=#82b366;" vertex="1" parent="oITcM-gIP-XaoDnhHXlV-1">
          <mxGeometry x="520" y="90" width="40" height="20" as="geometry" />
        </mxCell>
        <mxCell id="oITcM-gIP-XaoDnhHXlV-23" value="3" style="rounded=0;whiteSpace=wrap;html=1;fontSize=18;fillColor=#d5e8d4;strokeColor=#82b366;" vertex="1" parent="oITcM-gIP-XaoDnhHXlV-1">
          <mxGeometry x="560" y="90" width="40" height="20" as="geometry" />
        </mxCell>
        <mxCell id="oITcM-gIP-XaoDnhHXlV-24" value="4" style="rounded=0;whiteSpace=wrap;html=1;fontSize=18;fillColor=#d5e8d4;strokeColor=#82b366;" vertex="1" parent="oITcM-gIP-XaoDnhHXlV-1">
          <mxGeometry x="600" y="90" width="40" height="20" as="geometry" />
        </mxCell>
        <mxCell id="oITcM-gIP-XaoDnhHXlV-25" value="int length = 5" style="rounded=0;whiteSpace=wrap;html=1;fontSize=17;fontFamily=Ubuntu;fontSource=https%3A%2F%2Ffonts.googleapis.com%2Fcss%3Ffamily%3DUbuntu;" vertex="1" parent="oITcM-gIP-XaoDnhHXlV-1">
          <mxGeometry x="440" y="150" width="200" height="30" as="geometry" />
        </mxCell>
        <mxCell id="oITcM-gIP-XaoDnhHXlV-26" value="..." style="rounded=0;whiteSpace=wrap;html=1;fontSize=17;fontFamily=Ubuntu;fontSource=https%3A%2F%2Ffonts.googleapis.com%2Fcss%3Ffamily%3DUbuntu;" vertex="1" parent="oITcM-gIP-XaoDnhHXlV-1">
          <mxGeometry x="440" y="180" width="200" height="30" as="geometry" />
        </mxCell>
        <mxCell id="oITcM-gIP-XaoDnhHXlV-27" value="0xAF10" style="text;html=1;strokeColor=#6c8ebf;fillColor=#dae8fc;align=center;verticalAlign=middle;whiteSpace=wrap;rounded=0;fontFamily=Ubuntu;fontSource=https%3A%2F%2Ffonts.googleapis.com%2Fcss%3Ffamily%3DUbuntu;fontSize=17;" vertex="1" parent="oITcM-gIP-XaoDnhHXlV-1">
          <mxGeometry x="440" y="60" width="200" height="30" as="geometry" />
        </mxCell>
        <mxCell id="oITcM-gIP-XaoDnhHXlV-28" value="1" style="rounded=0;whiteSpace=wrap;html=1;fontSize=18;" vertex="1" parent="oITcM-gIP-XaoDnhHXlV-1">
          <mxGeometry x="440" y="310" width="40" height="40" as="geometry" />
        </mxCell>
        <mxCell id="oITcM-gIP-XaoDnhHXlV-29" value="2" style="rounded=0;whiteSpace=wrap;html=1;fontSize=18;" vertex="1" parent="oITcM-gIP-XaoDnhHXlV-1">
          <mxGeometry x="480" y="310" width="40" height="40" as="geometry" />
        </mxCell>
        <mxCell id="oITcM-gIP-XaoDnhHXlV-30" value="3" style="rounded=0;whiteSpace=wrap;html=1;fontSize=18;" vertex="1" parent="oITcM-gIP-XaoDnhHXlV-1">
          <mxGeometry x="520" y="310" width="40" height="40" as="geometry" />
        </mxCell>
        <mxCell id="oITcM-gIP-XaoDnhHXlV-31" value="4" style="rounded=0;whiteSpace=wrap;html=1;fontSize=18;" vertex="1" parent="oITcM-gIP-XaoDnhHXlV-1">
          <mxGeometry x="560" y="310" width="40" height="40" as="geometry" />
        </mxCell>
        <mxCell id="oITcM-gIP-XaoDnhHXlV-32" value="50" style="rounded=0;whiteSpace=wrap;html=1;fontSize=18;" vertex="1" parent="oITcM-gIP-XaoDnhHXlV-1">
          <mxGeometry x="600" y="310" width="40" height="40" as="geometry" />
        </mxCell>
        <mxCell id="oITcM-gIP-XaoDnhHXlV-33" value="0" style="rounded=0;whiteSpace=wrap;html=1;fontSize=18;fillColor=#d5e8d4;strokeColor=#82b366;" vertex="1" parent="oITcM-gIP-XaoDnhHXlV-1">
          <mxGeometry x="440" y="290" width="40" height="20" as="geometry" />
        </mxCell>
        <mxCell id="oITcM-gIP-XaoDnhHXlV-34" value="1" style="rounded=0;whiteSpace=wrap;html=1;fontSize=18;fillColor=#d5e8d4;strokeColor=#82b366;" vertex="1" parent="oITcM-gIP-XaoDnhHXlV-1">
          <mxGeometry x="480" y="290" width="40" height="20" as="geometry" />
        </mxCell>
        <mxCell id="oITcM-gIP-XaoDnhHXlV-35" value="2" style="rounded=0;whiteSpace=wrap;html=1;fontSize=18;fillColor=#d5e8d4;strokeColor=#82b366;" vertex="1" parent="oITcM-gIP-XaoDnhHXlV-1">
          <mxGeometry x="520" y="290" width="40" height="20" as="geometry" />
        </mxCell>
        <mxCell id="oITcM-gIP-XaoDnhHXlV-36" value="3" style="rounded=0;whiteSpace=wrap;html=1;fontSize=18;fillColor=#d5e8d4;strokeColor=#82b366;" vertex="1" parent="oITcM-gIP-XaoDnhHXlV-1">
          <mxGeometry x="560" y="290" width="40" height="20" as="geometry" />
        </mxCell>
        <mxCell id="oITcM-gIP-XaoDnhHXlV-37" value="4" style="rounded=0;whiteSpace=wrap;html=1;fontSize=18;fillColor=#d5e8d4;strokeColor=#82b366;" vertex="1" parent="oITcM-gIP-XaoDnhHXlV-1">
          <mxGeometry x="600" y="290" width="40" height="20" as="geometry" />
        </mxCell>
        <mxCell id="oITcM-gIP-XaoDnhHXlV-38" value="int length = 5" style="rounded=0;whiteSpace=wrap;html=1;fontSize=17;fontFamily=Ubuntu;fontSource=https%3A%2F%2Ffonts.googleapis.com%2Fcss%3Ffamily%3DUbuntu;" vertex="1" parent="oITcM-gIP-XaoDnhHXlV-1">
          <mxGeometry x="440" y="350" width="200" height="30" as="geometry" />
        </mxCell>
        <mxCell id="oITcM-gIP-XaoDnhHXlV-39" value="..." style="rounded=0;whiteSpace=wrap;html=1;fontSize=17;fontFamily=Ubuntu;fontSource=https%3A%2F%2Ffonts.googleapis.com%2Fcss%3Ffamily%3DUbuntu;" vertex="1" parent="oITcM-gIP-XaoDnhHXlV-1">
          <mxGeometry x="440" y="380" width="200" height="30" as="geometry" />
        </mxCell>
        <mxCell id="oITcM-gIP-XaoDnhHXlV-40" value="0xAF11" style="text;html=1;strokeColor=#6c8ebf;fillColor=#dae8fc;align=center;verticalAlign=middle;whiteSpace=wrap;rounded=0;fontFamily=Ubuntu;fontSource=https%3A%2F%2Ffonts.googleapis.com%2Fcss%3Ffamily%3DUbuntu;fontSize=17;" vertex="1" parent="oITcM-gIP-XaoDnhHXlV-1">
          <mxGeometry x="440" y="260" width="200" height="30" as="geometry" />
        </mxCell>
        <mxCell id="NL1UsXUCdbLS6eXWeX1W-1" value="" style="shape=stencil(lVnLchw3DPyavaJIgi+cHec/XGU52ooiuWQlsf8+PdlwPARn2/FNXqNnCKDRADgXfffl8cPnh0sKX95eX35/+Pv68e3xor9cUro+Pz68Xt/w10XfX/Tdp5fXh99eX/58/nj79+cPm+X21x8vf21P+HrDWZXSN1QK3/77xaS3f3/59QZ4uj4fAVFCmgFdit4H9CrdvaFJCQSQJDtAlVTuA1qT5o6UpTFAklJmgEogPtQmwQGixEgA+O/Zh97FSFhLkVRnQJVG3pBN8ux0z6JGACrmAEkCASjy2iZAAzVI4lQl2QxoI5WngNQlzkdqhYY16TjxDthTeQqI8CHPgCAhE0CWHCcAcl8YIEibE1cLfQNCorM9XKgkb96DCg+IfRq1MuxLo88PvnhKFiO0wNvDbI/zc/uZRSXQag7S5wTkJkbs04jGbl+kEtLpkLfdXkfKz0t5MHK332v7XL6G9Ax7taGY5wSKkueAahshvkdR57GWEeNzABR4phAqNZKURZM6x0ijKNFHJKHOTiejGp+KfwPqojFWI6xzlJCYQGiBE7s8oJKUvEHzcqREj6RLJadImZ2Db50IdCfUyMm/YdMz1hSgXrM+xjY0+RxQfa8FWSJJXO6S5yiBjrSxpVGNOyBJJ2FFJ4xzplEhnTgNfctzPcTAAYj6HFajJ4JA6+wzejlReHQM1/wbVYwWR1J3iaRNDU1S5/Nn/vzu/U1ixN++nCfRjobRRmd/ofCEEh3akJw90y9DizJvTzhqS0uAPYkPhr/oz6/s+dlPg0EqUUfYu0Eq0njC3pfMKOt79urtjcgK/PVayv1NYxL9bs86vp3wh43jyG/y/GTCC/4Ef/7K+LkPEAd/WQdvozse+E/iuW04TrFofDZ71wck8vMnz7fGztNXfrLOh3i6MTyMH+7lS5f6InoLPtTs7Rn/k9crEIQ9X1d9YF0S9ZL9eYzXe3VdVZTXb3FtWxrXH3OTBx3PtmXV21N/f9Ie/HT5ylz/l80yj5X/3B78mflZ6fbdljuKRvsLdsLodmnpRH+2fj2fBwNEJYTAQJAdgCtoXZagqHRULMuVBsYsVgNFfU/dBjkS1BKXQQ5hIFHNJjqrOoZRthRgtjTXlmwk8u70OvNuWwYJ8bCJNdc40mgl9640uusESqUUm1WfqYTZjA3UmkapH/YUNixi9vTNuNNuhudVt/6hnogPcNHJl/KLn3UFV6UDBZhj7g2FdvxYRgEfdl42QsV94jhs1azHooKDm5Hj2O/uXMs4ZmSll13V30TlQofq7GeE3GmT1fG047UJvdZwpYDFK7Ny9veNJUsjtCueRIXLRRstdbf/YcKc4lU+dUFBHelqph7H/R5sB1Ta99G2qzuS0UFqJQVWO7bg674I7IBMNVXrslpWSmuw3i3H2AaNifAyzGIdTIwYyd/6Yh5gdz+lj8a0Awqdj5BX1z17o1eUSJMbqIzfmbayfBBA4tgIH5YrBOVfQYrvz5gSWR76cge3fQUhXMIBXPc0fvdj5sln6DxsjrTlDX2ozj1AWwBsMgTAXFiN3vLFsFxHA8FGgO0V2QMyi6v5C37jSrY9bwEwad18XAD0G1wf4+kBwO7IAXDCdAjcOWIRy/+B8HQy2hF//tPjjwH44/uXzk/Xp6fbh9Lj//svo/jp9lVV3/8D);lineShape=1;" vertex="1" parent="oITcM-gIP-XaoDnhHXlV-1">
          <mxGeometry x="372.2793502089112" y="134.55044437052402" width="69.2377942432172" height="197.95679273458381" as="geometry" />
        </mxCell>
        <mxCell id="NL1UsXUCdbLS6eXWeX1W-2" value="" style="shape=stencil(lVfLctswDPwaXTEkQBLkOU3/IzNxak/dOOM4ffx9oaqSTSjaTG6KjBUWrwUyyN3r/uFlN3B4vZxP33e/Do+X/SBfBubD8353PlzsaZD7Qe6eTufdt/Pp7flx+vvlYbQcn36cfo5f+D3hIlPUEcXhz/RGSNO/F18n++Ph+cZeApXW2TPVuG2fhWLu7COFsG2vgcbfbuwDtK9KTTr7RLls2zelUno+SlK3ATEsBJYMCQUGLiqpo9Rgjlqm0sdcMlVQhJpIe0qNiVGWmEJfNfOZgQetFPsYLKoIYlAhTj2gUQEeihUuekBTAGBS9oAAALnOOVkACguX05z1BZAoZADgmfECCJQQJRuWnlItMEtGSXpKVsoG2jUrpR6g1nxgIEok7QdCdW7H9wFl/t4CKJQAJWVfBwOgGTUCLJ4SiqFGSn0v1TC349YAiQMIJeRhNaImPBFU2gBOx6w1UOGMgJ84UzKklI1y9e0tKK2J2mpEGbVG8zJzI4bvIxKl4F2gILKJxGpGK5rR7CfIlOx/4rYWkOuNZh2PNhb7DTHuGERJ5hFeAIkiyOunAUUo9/JtU4uyZDOqvTClD4a6ep2xJccgrTbUoU+rLXbGhUt9Wm2zK/AgTHnlAe2sKNTcacKUgHzH4PXeAIK24rzGbxgVJMYUgw85g5DZ84mVGgqAYh9wxAtudVtF23hAxFaXj12LqIvCXJ+rXpA0xN/l07oQfF78XVVgNotfO1YOdLbNx8T1kEQC/9nD+WN7e7he6U+H43E68m9/91e9vZr+I5D7vw==);lineShape=1;" vertex="1" parent="oITcM-gIP-XaoDnhHXlV-1">
          <mxGeometry x="422.8171466296585" y="130.9469638508465" width="16.688796329402066" height="23.309989749620854" as="geometry" />
        </mxCell>
      </root>
    </mxGraphModel>
  </diagram>
  <diagram name="Page-4" id="vM1sxIKVhs5Z0lA3smRG">
    <mxGraphModel dx="879" dy="1444" grid="1" gridSize="10" guides="1" tooltips="1" connect="1" arrows="1" fold="1" page="1" pageScale="1" pageWidth="1100" pageHeight="850" math="0" shadow="0">
      <root>
        <mxCell id="4l0b7tINQao91hOexLjQ-0" />
        <mxCell id="4l0b7tINQao91hOexLjQ-1" parent="4l0b7tINQao91hOexLjQ-0" />
        <mxCell id="4l0b7tINQao91hOexLjQ-2" value="" style="rounded=0;whiteSpace=wrap;html=1;" vertex="1" parent="4l0b7tINQao91hOexLjQ-1">
          <mxGeometry x="270" y="40" width="610" height="460" as="geometry" />
        </mxCell>
        <mxCell id="4l0b7tINQao91hOexLjQ-3" value="" style="rounded=0;whiteSpace=wrap;html=1;" vertex="1" parent="4l0b7tINQao91hOexLjQ-1">
          <mxGeometry x="40" y="40" width="230" height="460" as="geometry" />
        </mxCell>
        <mxCell id="4l0b7tINQao91hOexLjQ-4" value="main thread" style="shape=hexagon;perimeter=hexagonPerimeter2;whiteSpace=wrap;html=1;fixedSize=1;fontFamily=Ubuntu;fontSource=https%3A%2F%2Ffonts.googleapis.com%2Fcss%3Ffamily%3DUbuntu;fontSize=17;" vertex="1" parent="4l0b7tINQao91hOexLjQ-1">
          <mxGeometry x="110" y="-20" width="120" height="50" as="geometry" />
        </mxCell>
        <mxCell id="4l0b7tINQao91hOexLjQ-5" value="" style="rounded=0;whiteSpace=wrap;html=1;fillColor=#d5e8d4;strokeColor=#82b366;strokeWidth=11;" vertex="1" parent="4l0b7tINQao91hOexLjQ-1">
          <mxGeometry x="40" y="300" width="230" height="200" as="geometry" />
        </mxCell>
        <mxCell id="4l0b7tINQao91hOexLjQ-6" value="main()" style="text;html=1;strokeColor=none;fillColor=none;align=center;verticalAlign=middle;whiteSpace=wrap;rounded=0;fontFamily=Ubuntu;fontSource=https%3A%2F%2Ffonts.googleapis.com%2Fcss%3Ffamily%3DUbuntu;fontSize=16;rotation=-90;" vertex="1" parent="4l0b7tINQao91hOexLjQ-1">
          <mxGeometry x="-10" y="370" width="60" height="30" as="geometry" />
        </mxCell>
        <mxCell id="4l0b7tINQao91hOexLjQ-7" value="STACK" style="text;html=1;strokeColor=none;fillColor=none;align=center;verticalAlign=middle;whiteSpace=wrap;rounded=0;fontFamily=Ubuntu;fontSource=https%3A%2F%2Ffonts.googleapis.com%2Fcss%3Ffamily%3DUbuntu;fontSize=16;fontStyle=1" vertex="1" parent="4l0b7tINQao91hOexLjQ-1">
          <mxGeometry x="125" y="510" width="60" height="30" as="geometry" />
        </mxCell>
        <mxCell id="4l0b7tINQao91hOexLjQ-8" value="HEAP" style="text;html=1;strokeColor=none;fillColor=none;align=center;verticalAlign=middle;whiteSpace=wrap;rounded=0;fontFamily=Ubuntu;fontSource=https%3A%2F%2Ffonts.googleapis.com%2Fcss%3Ffamily%3DUbuntu;fontSize=16;fontStyle=1" vertex="1" parent="4l0b7tINQao91hOexLjQ-1">
          <mxGeometry x="520" y="510" width="60" height="30" as="geometry" />
        </mxCell>
        <mxCell id="4l0b7tINQao91hOexLjQ-9" value="int myInt = 10" style="rounded=0;whiteSpace=wrap;html=1;fontFamily=Ubuntu;fontSource=https%3A%2F%2Ffonts.googleapis.com%2Fcss%3Ffamily%3DUbuntu;fontSize=17;" vertex="1" parent="4l0b7tINQao91hOexLjQ-1">
          <mxGeometry x="40" y="300" width="230" height="40" as="geometry" />
        </mxCell>
        <mxCell id="4l0b7tINQao91hOexLjQ-10" style="edgeStyle=orthogonalEdgeStyle;rounded=0;orthogonalLoop=1;jettySize=auto;html=1;entryX=0;entryY=0.25;entryDx=0;entryDy=0;" edge="1" parent="4l0b7tINQao91hOexLjQ-1" source="4l0b7tINQao91hOexLjQ-11" target="4l0b7tINQao91hOexLjQ-28">
          <mxGeometry relative="1" as="geometry" />
        </mxCell>
        <mxCell id="4l0b7tINQao91hOexLjQ-11" value="int[] myArray = 0xAF10" style="rounded=0;whiteSpace=wrap;html=1;fontFamily=Ubuntu;fontSource=https%3A%2F%2Ffonts.googleapis.com%2Fcss%3Ffamily%3DUbuntu;fontSize=17;" vertex="1" parent="4l0b7tINQao91hOexLjQ-1">
          <mxGeometry x="40" y="340" width="230" height="40" as="geometry" />
        </mxCell>
        <mxCell id="4l0b7tINQao91hOexLjQ-12" style="edgeStyle=orthogonalEdgeStyle;rounded=0;orthogonalLoop=1;jettySize=auto;html=1;entryX=0;entryY=0.5;entryDx=0;entryDy=0;" edge="1" parent="4l0b7tINQao91hOexLjQ-1" source="4l0b7tINQao91hOexLjQ-13" target="4l0b7tINQao91hOexLjQ-41">
          <mxGeometry relative="1" as="geometry">
            <Array as="points">
              <mxPoint x="400" y="400" />
              <mxPoint x="400" y="275" />
            </Array>
          </mxGeometry>
        </mxCell>
        <mxCell id="4l0b7tINQao91hOexLjQ-13" value="int[] nums = 0xAF11" style="rounded=0;whiteSpace=wrap;html=1;fontFamily=Ubuntu;fontSource=https%3A%2F%2Ffonts.googleapis.com%2Fcss%3Ffamily%3DUbuntu;fontSize=17;" vertex="1" parent="4l0b7tINQao91hOexLjQ-1">
          <mxGeometry x="40" y="380" width="230" height="40" as="geometry" />
        </mxCell>
        <mxCell id="4l0b7tINQao91hOexLjQ-14" value="int i = 1" style="rounded=0;whiteSpace=wrap;html=1;fontFamily=Ubuntu;fontSource=https%3A%2F%2Ffonts.googleapis.com%2Fcss%3Ffamily%3DUbuntu;fontSize=17;" vertex="1" parent="4l0b7tINQao91hOexLjQ-1">
          <mxGeometry x="40" y="420" width="230" height="40" as="geometry" />
        </mxCell>
        <mxCell id="4l0b7tINQao91hOexLjQ-15" value="..." style="rounded=0;whiteSpace=wrap;html=1;fontFamily=Ubuntu;fontSource=https%3A%2F%2Ffonts.googleapis.com%2Fcss%3Ffamily%3DUbuntu;fontSize=17;" vertex="1" parent="4l0b7tINQao91hOexLjQ-1">
          <mxGeometry x="40" y="460" width="230" height="40" as="geometry" />
        </mxCell>
        <mxCell id="4l0b7tINQao91hOexLjQ-16" value="1" style="rounded=0;whiteSpace=wrap;html=1;fontSize=18;" vertex="1" parent="4l0b7tINQao91hOexLjQ-1">
          <mxGeometry x="440" y="110" width="40" height="40" as="geometry" />
        </mxCell>
        <mxCell id="4l0b7tINQao91hOexLjQ-17" value="2" style="rounded=0;whiteSpace=wrap;html=1;fontSize=18;" vertex="1" parent="4l0b7tINQao91hOexLjQ-1">
          <mxGeometry x="480" y="110" width="40" height="40" as="geometry" />
        </mxCell>
        <mxCell id="4l0b7tINQao91hOexLjQ-18" value="30" style="rounded=0;whiteSpace=wrap;html=1;fontSize=18;" vertex="1" parent="4l0b7tINQao91hOexLjQ-1">
          <mxGeometry x="520" y="110" width="40" height="40" as="geometry" />
        </mxCell>
        <mxCell id="4l0b7tINQao91hOexLjQ-19" value="10" style="rounded=0;whiteSpace=wrap;html=1;fontSize=18;" vertex="1" parent="4l0b7tINQao91hOexLjQ-1">
          <mxGeometry x="560" y="110" width="40" height="40" as="geometry" />
        </mxCell>
        <mxCell id="4l0b7tINQao91hOexLjQ-20" value="50" style="rounded=0;whiteSpace=wrap;html=1;fontSize=18;" vertex="1" parent="4l0b7tINQao91hOexLjQ-1">
          <mxGeometry x="600" y="110" width="40" height="40" as="geometry" />
        </mxCell>
        <mxCell id="4l0b7tINQao91hOexLjQ-21" value="0" style="rounded=0;whiteSpace=wrap;html=1;fontSize=18;fillColor=#d5e8d4;strokeColor=#82b366;" vertex="1" parent="4l0b7tINQao91hOexLjQ-1">
          <mxGeometry x="440" y="90" width="40" height="20" as="geometry" />
        </mxCell>
        <mxCell id="4l0b7tINQao91hOexLjQ-22" value="1" style="rounded=0;whiteSpace=wrap;html=1;fontSize=18;fillColor=#d5e8d4;strokeColor=#82b366;" vertex="1" parent="4l0b7tINQao91hOexLjQ-1">
          <mxGeometry x="480" y="90" width="40" height="20" as="geometry" />
        </mxCell>
        <mxCell id="4l0b7tINQao91hOexLjQ-23" value="2" style="rounded=0;whiteSpace=wrap;html=1;fontSize=18;fillColor=#d5e8d4;strokeColor=#82b366;" vertex="1" parent="4l0b7tINQao91hOexLjQ-1">
          <mxGeometry x="520" y="90" width="40" height="20" as="geometry" />
        </mxCell>
        <mxCell id="4l0b7tINQao91hOexLjQ-24" value="3" style="rounded=0;whiteSpace=wrap;html=1;fontSize=18;fillColor=#d5e8d4;strokeColor=#82b366;" vertex="1" parent="4l0b7tINQao91hOexLjQ-1">
          <mxGeometry x="560" y="90" width="40" height="20" as="geometry" />
        </mxCell>
        <mxCell id="4l0b7tINQao91hOexLjQ-25" value="4" style="rounded=0;whiteSpace=wrap;html=1;fontSize=18;fillColor=#d5e8d4;strokeColor=#82b366;" vertex="1" parent="4l0b7tINQao91hOexLjQ-1">
          <mxGeometry x="600" y="90" width="40" height="20" as="geometry" />
        </mxCell>
        <mxCell id="4l0b7tINQao91hOexLjQ-26" value="int length = 5" style="rounded=0;whiteSpace=wrap;html=1;fontSize=17;fontFamily=Ubuntu;fontSource=https%3A%2F%2Ffonts.googleapis.com%2Fcss%3Ffamily%3DUbuntu;" vertex="1" parent="4l0b7tINQao91hOexLjQ-1">
          <mxGeometry x="440" y="150" width="200" height="30" as="geometry" />
        </mxCell>
        <mxCell id="4l0b7tINQao91hOexLjQ-27" value="..." style="rounded=0;whiteSpace=wrap;html=1;fontSize=17;fontFamily=Ubuntu;fontSource=https%3A%2F%2Ffonts.googleapis.com%2Fcss%3Ffamily%3DUbuntu;" vertex="1" parent="4l0b7tINQao91hOexLjQ-1">
          <mxGeometry x="440" y="180" width="200" height="30" as="geometry" />
        </mxCell>
        <mxCell id="4l0b7tINQao91hOexLjQ-28" value="0xAF10" style="text;html=1;strokeColor=#6c8ebf;fillColor=#dae8fc;align=center;verticalAlign=middle;whiteSpace=wrap;rounded=0;fontFamily=Ubuntu;fontSource=https%3A%2F%2Ffonts.googleapis.com%2Fcss%3Ffamily%3DUbuntu;fontSize=17;" vertex="1" parent="4l0b7tINQao91hOexLjQ-1">
          <mxGeometry x="440" y="60" width="200" height="30" as="geometry" />
        </mxCell>
        <mxCell id="4l0b7tINQao91hOexLjQ-29" value="1" style="rounded=0;whiteSpace=wrap;html=1;fontSize=18;" vertex="1" parent="4l0b7tINQao91hOexLjQ-1">
          <mxGeometry x="440" y="310" width="40" height="40" as="geometry" />
        </mxCell>
        <mxCell id="4l0b7tINQao91hOexLjQ-30" value="2" style="rounded=0;whiteSpace=wrap;html=1;fontSize=18;" vertex="1" parent="4l0b7tINQao91hOexLjQ-1">
          <mxGeometry x="480" y="310" width="40" height="40" as="geometry" />
        </mxCell>
        <mxCell id="4l0b7tINQao91hOexLjQ-31" value="3" style="rounded=0;whiteSpace=wrap;html=1;fontSize=18;" vertex="1" parent="4l0b7tINQao91hOexLjQ-1">
          <mxGeometry x="520" y="310" width="40" height="40" as="geometry" />
        </mxCell>
        <mxCell id="4l0b7tINQao91hOexLjQ-32" value="4" style="rounded=0;whiteSpace=wrap;html=1;fontSize=18;" vertex="1" parent="4l0b7tINQao91hOexLjQ-1">
          <mxGeometry x="560" y="310" width="40" height="40" as="geometry" />
        </mxCell>
        <mxCell id="4l0b7tINQao91hOexLjQ-33" value="50" style="rounded=0;whiteSpace=wrap;html=1;fontSize=18;" vertex="1" parent="4l0b7tINQao91hOexLjQ-1">
          <mxGeometry x="600" y="310" width="40" height="40" as="geometry" />
        </mxCell>
        <mxCell id="4l0b7tINQao91hOexLjQ-34" value="0" style="rounded=0;whiteSpace=wrap;html=1;fontSize=18;fillColor=#d5e8d4;strokeColor=#82b366;" vertex="1" parent="4l0b7tINQao91hOexLjQ-1">
          <mxGeometry x="440" y="290" width="40" height="20" as="geometry" />
        </mxCell>
        <mxCell id="4l0b7tINQao91hOexLjQ-35" value="1" style="rounded=0;whiteSpace=wrap;html=1;fontSize=18;fillColor=#d5e8d4;strokeColor=#82b366;" vertex="1" parent="4l0b7tINQao91hOexLjQ-1">
          <mxGeometry x="480" y="290" width="40" height="20" as="geometry" />
        </mxCell>
        <mxCell id="4l0b7tINQao91hOexLjQ-36" value="2" style="rounded=0;whiteSpace=wrap;html=1;fontSize=18;fillColor=#d5e8d4;strokeColor=#82b366;" vertex="1" parent="4l0b7tINQao91hOexLjQ-1">
          <mxGeometry x="520" y="290" width="40" height="20" as="geometry" />
        </mxCell>
        <mxCell id="4l0b7tINQao91hOexLjQ-37" value="3" style="rounded=0;whiteSpace=wrap;html=1;fontSize=18;fillColor=#d5e8d4;strokeColor=#82b366;" vertex="1" parent="4l0b7tINQao91hOexLjQ-1">
          <mxGeometry x="560" y="290" width="40" height="20" as="geometry" />
        </mxCell>
        <mxCell id="4l0b7tINQao91hOexLjQ-38" value="4" style="rounded=0;whiteSpace=wrap;html=1;fontSize=18;fillColor=#d5e8d4;strokeColor=#82b366;" vertex="1" parent="4l0b7tINQao91hOexLjQ-1">
          <mxGeometry x="600" y="290" width="40" height="20" as="geometry" />
        </mxCell>
        <mxCell id="4l0b7tINQao91hOexLjQ-39" value="int length = 5" style="rounded=0;whiteSpace=wrap;html=1;fontSize=17;fontFamily=Ubuntu;fontSource=https%3A%2F%2Ffonts.googleapis.com%2Fcss%3Ffamily%3DUbuntu;" vertex="1" parent="4l0b7tINQao91hOexLjQ-1">
          <mxGeometry x="440" y="350" width="200" height="30" as="geometry" />
        </mxCell>
        <mxCell id="4l0b7tINQao91hOexLjQ-40" value="..." style="rounded=0;whiteSpace=wrap;html=1;fontSize=17;fontFamily=Ubuntu;fontSource=https%3A%2F%2Ffonts.googleapis.com%2Fcss%3Ffamily%3DUbuntu;" vertex="1" parent="4l0b7tINQao91hOexLjQ-1">
          <mxGeometry x="440" y="380" width="200" height="30" as="geometry" />
        </mxCell>
        <mxCell id="4l0b7tINQao91hOexLjQ-41" value="0xAF11" style="text;html=1;strokeColor=#6c8ebf;fillColor=#dae8fc;align=center;verticalAlign=middle;whiteSpace=wrap;rounded=0;fontFamily=Ubuntu;fontSource=https%3A%2F%2Ffonts.googleapis.com%2Fcss%3Ffamily%3DUbuntu;fontSize=17;" vertex="1" parent="4l0b7tINQao91hOexLjQ-1">
          <mxGeometry x="440" y="260" width="200" height="30" as="geometry" />
        </mxCell>
        <mxCell id="GzN0MIoKrTp_7LlhJN1B-0" value="" style="shape=stencil(lVnLcuQ2DPyauaJIgM/zZvMfW7XeeCqOveV1Xn8fKBPKYkvqiW/2CC0SBNBoUBf79OPxy/eHi4Yfb68vvz78ef369nixny6q1+fHh9frm/91sc8X+/Tt5fXhl9eX35+/3v7//mWxXP767eWP5Q1/3XCtiuYFpeHv2y+9S+r//vLzDfB0fd4CVKzMgCrWzgG1SbcZkKWRFWqWCoAkagSgkmFLvkk9B5QuBVYIEgsBVIl9Avi5NbKlkkXbDMiSKgGY9DQDTAI5JQeE2ekWpJA4FJWqE8Aj81/sTwGz0x4Z6rThKVWTlLjTc/LVIJ05nSXECVCalEAARTTMgPWXs0ineUu+ycYATSqsECWxU+qY3rlLZOkdJM9O5yKN5JIDbN5STpLZsXqJzrmUlda0HyKuEEbsz3LJ5npITQJJvlxHya+ALJ3EIcdRwSvAxkEfAlISgxWiZLKCFal1AlinBaRdbM4lq9RpXWlrBaRBnoeAWCTAllRaJIAwMmcFOGuwwI2nw16bZLIjQ5f9DYkcakQHNNEzDRLmxPMzCyRTg+hMq7FLZwckBeyrVEJhJmXOuujdi7y/4PlEG1l1aN+RtKP7yzLCJMMCgTaeWLEynY2Iw35Cabav0kkA/HUJ+JE2c8uYoXk0uuMyjugwTyDnnTbvZ03ZY14p2NR0pMj/7Gk6etYxWXvAIOPEiH13npu7QRgldGxvohXtSUG6OEuG9iS+i/orYK+EULqfP9oXkg8uR4F1I+XQGHYUEUf/PFsA2msc3fDMASgYpQnUCwoETyBmn5BSnNKJmHWtmyrakwR1qWtoX8n7W0N17QuS81kmigT2TMi2smMsej6LPSYEkx7LfuZ4Bans/a4oscCMJXTYFwyTcx4vKPhACcLzoe4Kkr3f821XkOz9TZKC/b16wf0zYXZYkMYKrI/4vNszTbMwyuyA0g6zMFYE+8wYNB8UDGPED9r7GIbKlQZ4GXlAuNICLgHPMw/1ftzxDAd2b8mso1YkrDIkwrH92lDeFUQi+zfDYaMNxjhWHHmnmcKggDNJAy078hEu+uC8U2VsSIwu4wGQ6A2Fv0+hKbkOYYCAssA3yfp8GyS7FcakCjxJoetFOprs2rzrLCq8w27SyBxgY/JfAZU2ble6upt9GPO+C4HNdEXnt4pO+/wWyQr+uM2l5kOmkjAnRW6xRucrn8vBaS+/QuLsg3eeU9XX7IxenK3mfuCTemRXXR35whmEKQqXyFA9qXNGLePx5j6DbWlPwcuNCdtSwznO5wR2c1Urjk25U53sPoCuLnEIk7NrU2CAZRRhTq8FubkbY425Kkrx5fKLSM0aEeC/MC3oj+NcD8sNIgOED95ROqDN2brEnm8J1EILQwCdnZLBTa7y6zpDH1qmI3hd+/HmNpqRgLuY4K6401xqETWtj52MNVoaF70rwAaPnKly6Cc9U6rsq+pdAeWebINccqFYmO7MI9U2ABY4B2QAdIl3ZuvdxxYmAxwQdgB2rD4sYOA6vY/yMBVFAFN7Pr6UioDOABHl6mYiOAs1Tnh3EJ7OeXdOnZTQMuTt3WZypiJvOIB9bvn4h7X7AP/j/Tvet+vT0+0z4PY5fvfzn27fDO3zPw==);lineShape=1;" vertex="1" parent="4l0b7tINQao91hOexLjQ-1">
          <mxGeometry x="450.0162180423215" y="135.38972201480124" width="39.4603574459486" height="187.3397373662167" as="geometry" />
        </mxCell>
        <mxCell id="GzN0MIoKrTp_7LlhJN1B-1" value="" style="shape=stencil(lVbLbhsxDPyavRKUKOpxTtP/CBCnNurageO+/r50F2uHjHeK3tYyRyKpGY4meXjbPr1upsxv59Px6+bn7vm8neTTlPPusN2cdmf7muRxkoeX42nz5XT8fnief78+XSIvX9+OPy47/JpxuVMdF1Tm3/MKU+G/C5/n+P3u8C5eM7GPFyq6Ht+FRnHxKVHJ64DETMz+BKHewBGDWncAFdK+DmiZms/JVoaAoiWmNDLltA4ojUrzgEoMUpJBw7d1dGqgaEkk6vt6a9xdRM7LRV2PGFQLuIlCWTygUQNX10h9W0ehUkENkUqDKYEmWcl+/67Lyv2KqXhedOM2iK8kPr5V2NGUqfoGteuR9xNiUl9xY8pAPXksWlkAdZACgHTKHE9ANReNxLMaOtJCjlqwLqGiVWPRPcG2qt1DAFiSgHdaSII8GRK1WBNrZOoAKRW76aCdTgy6JB9TsikFtJA1ks8AA6mzUi8xJQVFX4lzjVeqYMKY+oM602IVK+qsyd9apQHVHKZ2N2YhplILRG3Qqf433lymeq2pjSPEItOuH/Jmpoh2qVEKAKUEWGRWGcRpVTHwnbZo/Rqflxm+MoG7Z2ky0oH9U6z4UhJg9QcrN09JgHMW73VpHWDIuWBpnRKy5Wg4ChnRqHtCCOSD2UHxdpDg9ta7MFQY25ks7niLh4ZvbOQQj/L591PQPm7vyJfdfj8/Q9//H9+dtjS/WeXxDw==);lineShape=1;" vertex="1" parent="4l0b7tINQao91hOexLjQ-1">
          <mxGeometry x="478.80298090225983" y="131.789779680008" width="9.5816701403769" height="17.31129301590704" as="geometry" />
        </mxCell>
      </root>
    </mxGraphModel>
  </diagram>
  <diagram name="Page-5" id="GH5Hyw8WbNAmItbirv2U">
    <mxGraphModel dx="879" dy="1444" grid="1" gridSize="10" guides="1" tooltips="1" connect="1" arrows="1" fold="1" page="1" pageScale="1" pageWidth="1100" pageHeight="850" math="0" shadow="0">
      <root>
        <mxCell id="zToJMufdmCH1j626jx_x-0" />
        <mxCell id="zToJMufdmCH1j626jx_x-1" parent="zToJMufdmCH1j626jx_x-0" />
        <mxCell id="zToJMufdmCH1j626jx_x-2" value="" style="rounded=0;whiteSpace=wrap;html=1;" vertex="1" parent="zToJMufdmCH1j626jx_x-1">
          <mxGeometry x="270" y="40" width="610" height="460" as="geometry" />
        </mxCell>
        <mxCell id="zToJMufdmCH1j626jx_x-3" value="" style="rounded=0;whiteSpace=wrap;html=1;" vertex="1" parent="zToJMufdmCH1j626jx_x-1">
          <mxGeometry x="40" y="40" width="230" height="460" as="geometry" />
        </mxCell>
        <mxCell id="zToJMufdmCH1j626jx_x-4" value="main thread" style="shape=hexagon;perimeter=hexagonPerimeter2;whiteSpace=wrap;html=1;fixedSize=1;fontFamily=Ubuntu;fontSource=https%3A%2F%2Ffonts.googleapis.com%2Fcss%3Ffamily%3DUbuntu;fontSize=17;" vertex="1" parent="zToJMufdmCH1j626jx_x-1">
          <mxGeometry x="110" y="-20" width="120" height="50" as="geometry" />
        </mxCell>
        <mxCell id="zToJMufdmCH1j626jx_x-5" value="" style="rounded=0;whiteSpace=wrap;html=1;fillColor=#d5e8d4;strokeColor=#82b366;strokeWidth=11;" vertex="1" parent="zToJMufdmCH1j626jx_x-1">
          <mxGeometry x="40" y="300" width="230" height="200" as="geometry" />
        </mxCell>
        <mxCell id="zToJMufdmCH1j626jx_x-6" value="main()" style="text;html=1;strokeColor=none;fillColor=none;align=center;verticalAlign=middle;whiteSpace=wrap;rounded=0;fontFamily=Ubuntu;fontSource=https%3A%2F%2Ffonts.googleapis.com%2Fcss%3Ffamily%3DUbuntu;fontSize=16;rotation=-90;" vertex="1" parent="zToJMufdmCH1j626jx_x-1">
          <mxGeometry x="-10" y="370" width="60" height="30" as="geometry" />
        </mxCell>
        <mxCell id="zToJMufdmCH1j626jx_x-7" value="STACK" style="text;html=1;strokeColor=none;fillColor=none;align=center;verticalAlign=middle;whiteSpace=wrap;rounded=0;fontFamily=Ubuntu;fontSource=https%3A%2F%2Ffonts.googleapis.com%2Fcss%3Ffamily%3DUbuntu;fontSize=16;fontStyle=1" vertex="1" parent="zToJMufdmCH1j626jx_x-1">
          <mxGeometry x="125" y="510" width="60" height="30" as="geometry" />
        </mxCell>
        <mxCell id="zToJMufdmCH1j626jx_x-8" value="HEAP" style="text;html=1;strokeColor=none;fillColor=none;align=center;verticalAlign=middle;whiteSpace=wrap;rounded=0;fontFamily=Ubuntu;fontSource=https%3A%2F%2Ffonts.googleapis.com%2Fcss%3Ffamily%3DUbuntu;fontSize=16;fontStyle=1" vertex="1" parent="zToJMufdmCH1j626jx_x-1">
          <mxGeometry x="520" y="510" width="60" height="30" as="geometry" />
        </mxCell>
        <mxCell id="zToJMufdmCH1j626jx_x-9" value="int myInt = 10" style="rounded=0;whiteSpace=wrap;html=1;fontFamily=Ubuntu;fontSource=https%3A%2F%2Ffonts.googleapis.com%2Fcss%3Ffamily%3DUbuntu;fontSize=17;" vertex="1" parent="zToJMufdmCH1j626jx_x-1">
          <mxGeometry x="40" y="300" width="230" height="40" as="geometry" />
        </mxCell>
        <mxCell id="zToJMufdmCH1j626jx_x-10" style="edgeStyle=orthogonalEdgeStyle;rounded=0;orthogonalLoop=1;jettySize=auto;html=1;entryX=0;entryY=0.25;entryDx=0;entryDy=0;" edge="1" parent="zToJMufdmCH1j626jx_x-1" source="zToJMufdmCH1j626jx_x-11" target="zToJMufdmCH1j626jx_x-28">
          <mxGeometry relative="1" as="geometry" />
        </mxCell>
        <mxCell id="zToJMufdmCH1j626jx_x-11" value="int[] myArray = 0xAF10" style="rounded=0;whiteSpace=wrap;html=1;fontFamily=Ubuntu;fontSource=https%3A%2F%2Ffonts.googleapis.com%2Fcss%3Ffamily%3DUbuntu;fontSize=17;" vertex="1" parent="zToJMufdmCH1j626jx_x-1">
          <mxGeometry x="40" y="340" width="230" height="40" as="geometry" />
        </mxCell>
        <mxCell id="zToJMufdmCH1j626jx_x-12" style="edgeStyle=orthogonalEdgeStyle;rounded=0;orthogonalLoop=1;jettySize=auto;html=1;entryX=0;entryY=0.5;entryDx=0;entryDy=0;" edge="1" parent="zToJMufdmCH1j626jx_x-1" source="zToJMufdmCH1j626jx_x-13" target="zToJMufdmCH1j626jx_x-41">
          <mxGeometry relative="1" as="geometry">
            <Array as="points">
              <mxPoint x="400" y="400" />
              <mxPoint x="400" y="275" />
            </Array>
          </mxGeometry>
        </mxCell>
        <mxCell id="zToJMufdmCH1j626jx_x-13" value="int[] nums = 0xAF11" style="rounded=0;whiteSpace=wrap;html=1;fontFamily=Ubuntu;fontSource=https%3A%2F%2Ffonts.googleapis.com%2Fcss%3Ffamily%3DUbuntu;fontSize=17;" vertex="1" parent="zToJMufdmCH1j626jx_x-1">
          <mxGeometry x="40" y="380" width="230" height="40" as="geometry" />
        </mxCell>
        <mxCell id="zToJMufdmCH1j626jx_x-14" value="int i" style="rounded=0;whiteSpace=wrap;html=1;fontFamily=Ubuntu;fontSource=https%3A%2F%2Ffonts.googleapis.com%2Fcss%3Ffamily%3DUbuntu;fontSize=17;" vertex="1" parent="zToJMufdmCH1j626jx_x-1">
          <mxGeometry x="40" y="420" width="230" height="40" as="geometry" />
        </mxCell>
        <mxCell id="zToJMufdmCH1j626jx_x-15" value="..." style="rounded=0;whiteSpace=wrap;html=1;fontFamily=Ubuntu;fontSource=https%3A%2F%2Ffonts.googleapis.com%2Fcss%3Ffamily%3DUbuntu;fontSize=17;" vertex="1" parent="zToJMufdmCH1j626jx_x-1">
          <mxGeometry x="40" y="460" width="230" height="40" as="geometry" />
        </mxCell>
        <mxCell id="zToJMufdmCH1j626jx_x-16" value="1" style="rounded=0;whiteSpace=wrap;html=1;fontSize=18;" vertex="1" parent="zToJMufdmCH1j626jx_x-1">
          <mxGeometry x="440" y="110" width="40" height="40" as="geometry" />
        </mxCell>
        <mxCell id="zToJMufdmCH1j626jx_x-17" value="2" style="rounded=0;whiteSpace=wrap;html=1;fontSize=18;" vertex="1" parent="zToJMufdmCH1j626jx_x-1">
          <mxGeometry x="480" y="110" width="40" height="40" as="geometry" />
        </mxCell>
        <mxCell id="zToJMufdmCH1j626jx_x-18" value="3" style="rounded=0;whiteSpace=wrap;html=1;fontSize=18;" vertex="1" parent="zToJMufdmCH1j626jx_x-1">
          <mxGeometry x="520" y="110" width="40" height="40" as="geometry" />
        </mxCell>
        <mxCell id="zToJMufdmCH1j626jx_x-19" value="4" style="rounded=0;whiteSpace=wrap;html=1;fontSize=18;" vertex="1" parent="zToJMufdmCH1j626jx_x-1">
          <mxGeometry x="560" y="110" width="40" height="40" as="geometry" />
        </mxCell>
        <mxCell id="zToJMufdmCH1j626jx_x-20" value="50" style="rounded=0;whiteSpace=wrap;html=1;fontSize=18;" vertex="1" parent="zToJMufdmCH1j626jx_x-1">
          <mxGeometry x="600" y="110" width="40" height="40" as="geometry" />
        </mxCell>
        <mxCell id="zToJMufdmCH1j626jx_x-21" value="0" style="rounded=0;whiteSpace=wrap;html=1;fontSize=18;fillColor=#d5e8d4;strokeColor=#82b366;" vertex="1" parent="zToJMufdmCH1j626jx_x-1">
          <mxGeometry x="440" y="90" width="40" height="20" as="geometry" />
        </mxCell>
        <mxCell id="zToJMufdmCH1j626jx_x-22" value="1" style="rounded=0;whiteSpace=wrap;html=1;fontSize=18;fillColor=#d5e8d4;strokeColor=#82b366;" vertex="1" parent="zToJMufdmCH1j626jx_x-1">
          <mxGeometry x="480" y="90" width="40" height="20" as="geometry" />
        </mxCell>
        <mxCell id="zToJMufdmCH1j626jx_x-23" value="2" style="rounded=0;whiteSpace=wrap;html=1;fontSize=18;fillColor=#d5e8d4;strokeColor=#82b366;" vertex="1" parent="zToJMufdmCH1j626jx_x-1">
          <mxGeometry x="520" y="90" width="40" height="20" as="geometry" />
        </mxCell>
        <mxCell id="zToJMufdmCH1j626jx_x-24" value="3" style="rounded=0;whiteSpace=wrap;html=1;fontSize=18;fillColor=#d5e8d4;strokeColor=#82b366;" vertex="1" parent="zToJMufdmCH1j626jx_x-1">
          <mxGeometry x="560" y="90" width="40" height="20" as="geometry" />
        </mxCell>
        <mxCell id="zToJMufdmCH1j626jx_x-25" value="4" style="rounded=0;whiteSpace=wrap;html=1;fontSize=18;fillColor=#d5e8d4;strokeColor=#82b366;" vertex="1" parent="zToJMufdmCH1j626jx_x-1">
          <mxGeometry x="600" y="90" width="40" height="20" as="geometry" />
        </mxCell>
        <mxCell id="zToJMufdmCH1j626jx_x-26" value="int length = 5" style="rounded=0;whiteSpace=wrap;html=1;fontSize=17;fontFamily=Ubuntu;fontSource=https%3A%2F%2Ffonts.googleapis.com%2Fcss%3Ffamily%3DUbuntu;" vertex="1" parent="zToJMufdmCH1j626jx_x-1">
          <mxGeometry x="440" y="150" width="200" height="30" as="geometry" />
        </mxCell>
        <mxCell id="zToJMufdmCH1j626jx_x-27" value="..." style="rounded=0;whiteSpace=wrap;html=1;fontSize=17;fontFamily=Ubuntu;fontSource=https%3A%2F%2Ffonts.googleapis.com%2Fcss%3Ffamily%3DUbuntu;" vertex="1" parent="zToJMufdmCH1j626jx_x-1">
          <mxGeometry x="440" y="180" width="200" height="30" as="geometry" />
        </mxCell>
        <mxCell id="zToJMufdmCH1j626jx_x-28" value="0xAF10" style="text;html=1;strokeColor=#6c8ebf;fillColor=#dae8fc;align=center;verticalAlign=middle;whiteSpace=wrap;rounded=0;fontFamily=Ubuntu;fontSource=https%3A%2F%2Ffonts.googleapis.com%2Fcss%3Ffamily%3DUbuntu;fontSize=17;" vertex="1" parent="zToJMufdmCH1j626jx_x-1">
          <mxGeometry x="440" y="60" width="200" height="30" as="geometry" />
        </mxCell>
        <mxCell id="zToJMufdmCH1j626jx_x-29" value="1" style="rounded=0;whiteSpace=wrap;html=1;fontSize=18;" vertex="1" parent="zToJMufdmCH1j626jx_x-1">
          <mxGeometry x="440" y="310" width="40" height="40" as="geometry" />
        </mxCell>
        <mxCell id="zToJMufdmCH1j626jx_x-30" value="2" style="rounded=0;whiteSpace=wrap;html=1;fontSize=18;" vertex="1" parent="zToJMufdmCH1j626jx_x-1">
          <mxGeometry x="480" y="310" width="40" height="40" as="geometry" />
        </mxCell>
        <mxCell id="zToJMufdmCH1j626jx_x-31" value="3" style="rounded=0;whiteSpace=wrap;html=1;fontSize=18;" vertex="1" parent="zToJMufdmCH1j626jx_x-1">
          <mxGeometry x="520" y="310" width="40" height="40" as="geometry" />
        </mxCell>
        <mxCell id="zToJMufdmCH1j626jx_x-32" value="4" style="rounded=0;whiteSpace=wrap;html=1;fontSize=18;" vertex="1" parent="zToJMufdmCH1j626jx_x-1">
          <mxGeometry x="560" y="310" width="40" height="40" as="geometry" />
        </mxCell>
        <mxCell id="zToJMufdmCH1j626jx_x-33" value="50" style="rounded=0;whiteSpace=wrap;html=1;fontSize=18;" vertex="1" parent="zToJMufdmCH1j626jx_x-1">
          <mxGeometry x="600" y="310" width="40" height="40" as="geometry" />
        </mxCell>
        <mxCell id="zToJMufdmCH1j626jx_x-34" value="0" style="rounded=0;whiteSpace=wrap;html=1;fontSize=18;fillColor=#d5e8d4;strokeColor=#82b366;" vertex="1" parent="zToJMufdmCH1j626jx_x-1">
          <mxGeometry x="440" y="290" width="40" height="20" as="geometry" />
        </mxCell>
        <mxCell id="zToJMufdmCH1j626jx_x-35" value="1" style="rounded=0;whiteSpace=wrap;html=1;fontSize=18;fillColor=#d5e8d4;strokeColor=#82b366;" vertex="1" parent="zToJMufdmCH1j626jx_x-1">
          <mxGeometry x="480" y="290" width="40" height="20" as="geometry" />
        </mxCell>
        <mxCell id="zToJMufdmCH1j626jx_x-36" value="2" style="rounded=0;whiteSpace=wrap;html=1;fontSize=18;fillColor=#d5e8d4;strokeColor=#82b366;" vertex="1" parent="zToJMufdmCH1j626jx_x-1">
          <mxGeometry x="520" y="290" width="40" height="20" as="geometry" />
        </mxCell>
        <mxCell id="zToJMufdmCH1j626jx_x-37" value="3" style="rounded=0;whiteSpace=wrap;html=1;fontSize=18;fillColor=#d5e8d4;strokeColor=#82b366;" vertex="1" parent="zToJMufdmCH1j626jx_x-1">
          <mxGeometry x="560" y="290" width="40" height="20" as="geometry" />
        </mxCell>
        <mxCell id="zToJMufdmCH1j626jx_x-38" value="4" style="rounded=0;whiteSpace=wrap;html=1;fontSize=18;fillColor=#d5e8d4;strokeColor=#82b366;" vertex="1" parent="zToJMufdmCH1j626jx_x-1">
          <mxGeometry x="600" y="290" width="40" height="20" as="geometry" />
        </mxCell>
        <mxCell id="zToJMufdmCH1j626jx_x-39" value="int length = 5" style="rounded=0;whiteSpace=wrap;html=1;fontSize=17;fontFamily=Ubuntu;fontSource=https%3A%2F%2Ffonts.googleapis.com%2Fcss%3Ffamily%3DUbuntu;" vertex="1" parent="zToJMufdmCH1j626jx_x-1">
          <mxGeometry x="440" y="350" width="200" height="30" as="geometry" />
        </mxCell>
        <mxCell id="zToJMufdmCH1j626jx_x-40" value="..." style="rounded=0;whiteSpace=wrap;html=1;fontSize=17;fontFamily=Ubuntu;fontSource=https%3A%2F%2Ffonts.googleapis.com%2Fcss%3Ffamily%3DUbuntu;" vertex="1" parent="zToJMufdmCH1j626jx_x-1">
          <mxGeometry x="440" y="380" width="200" height="30" as="geometry" />
        </mxCell>
        <mxCell id="zToJMufdmCH1j626jx_x-41" value="0xAF11" style="text;html=1;strokeColor=#6c8ebf;fillColor=#dae8fc;align=center;verticalAlign=middle;whiteSpace=wrap;rounded=0;fontFamily=Ubuntu;fontSource=https%3A%2F%2Ffonts.googleapis.com%2Fcss%3Ffamily%3DUbuntu;fontSize=17;" vertex="1" parent="zToJMufdmCH1j626jx_x-1">
          <mxGeometry x="440" y="260" width="200" height="30" as="geometry" />
        </mxCell>
        <mxCell id="XwqilFFjm77eaxbNXKab-0" value="" style="shape=stencil(lVjLbttADPwaXwkuuc9zmv5HgDiN0TQOnKSPvy9VY2UtJY/Rm6NwpCU5JIe707v354e3/U74/eN0/L7/dXj8eN7pl53I4fV5fzp82K+d3u/07ul42n87HT9fH89/vz1MltOvH8ef0xt+n3ElENcJJfzn/KRVquXfk69nwMvhdQmoxHEEZEr5OqAylTwCIrUAAELVAYQaOFKNJM4HplwhII9fqLNX1wCsIyARJ+iDhBEQKDYY1jqGtRTK4AslUhi/UJQy+EIuVNoAyA1GKVvixiPlRFmvA5JSGY+UA2UQ1liIR0AqnSzbAKYw5sG+WUGUVCmMTicmBU5L7u/rADtkAGwVi9JIvqjUQJRColhGAHfCbwPYH0kLNQGJoySjfYLslp6k2V5I+bo9UxyTIEYkUJ9MzKO9hRScP6zsI2S2kozxMY8iOE+mOMbHTqiARJYAHgGhkqCMqS+1kElABoLV+uhyiKQI0HyPDEIF+CC8AgRSQFPLgvOhdqJv2xtnXHuBSbOcqis0quj9M+dnlsKQqqVoLDOmBEgRg2/x3Gm1bR8psbNHEyFWUvH2oMiSEDdvD+KZrK0EZ6+gyKzTtujsM+B0ar5qZuVwzT5XZ5/Q8DB6uRKAQz9ZlxvfL7BibFAk1yUog/jE5vlmBYb4k4mLtwfxieLzJXBWaiP19grOo8XrA4F80+z5H2C9mL2brAHOSTtPGhsQw/4QV02XYX5t6oqvF3SeSXv4eof1uGqgDIdqil1nLPoJ4n/xitH6FXp/I/bnQbLD7IvPLxJCZh/cwKCK+0l0U/uWv/9lH2c5fJkXSL1af3b91ggL8mv16PhcoL9xbvdzfCzBqMCqd8AmcAIeWIV5gKlZ1CJ01aJtpiLt2nyPMJ2ClNxlRi+UEOpak+xwXQivZqaEfBuVPhi2AbYHOUDsymUbYH3WHQkrfAMkB2iwNO1IMpaOCWo0Ky2IwWkbCzRwehK4TrIXnLjit3bjLySf+HFjDRbNS6O3q2ebiMgHK1B3L2AtlpECCZ5L00xHEqGuvmBNB228qUuUxQKLNoMiXuTYK9CUKs2rLlvCI7oMWckcW/ORDy34IxXsdFs5XfFkaKYcxy/USA1UXDMXx0Y2XbegFZlXK2Nj2Mla9Ttsw+uBee3WG3uC9PIU1zFMDW+xdV5aZ0Dri/M2QPu12AKASq7KyocGNeolsQtARbdS8/sWAKTKp9tBPxWxrirZz+npE4B+JXqCTwDADSsY0ZXX6EjinZgSgdpA6JN/mWoUJu7L+gIgNwArbjACBL8+3rrXvX0RbD8u18hPh5eX8y308v/+2tkena+s9f4v);lineShape=1;" vertex="1" parent="zToJMufdmCH1j626jx_x-1">
          <mxGeometry x="447.43550506184715" y="142.50145799546817" width="21.267672523636747" height="181.0319557088078" as="geometry" />
        </mxCell>
        <mxCell id="XwqilFFjm77eaxbNXKab-1" value="" style="shape=stencil(7VjLbhsxDPwaXwlJ1IvnNP2PAHEao24cOO7r7ztbYx2L9k6aa9Dbeq0RRXI45GqlNy+Pd8/rVQovh/3u6/rn5v7wuNJPq5Q2T4/r/eaAp5XervTmYbdff9nvvj/dH38/300rp6dvux/TDr+OuFYl6YRK4ffxTTRJ/e+bz0fAdvN0BqhRUhgAmqWnZUDG320AlCQtLwMUFtIAqE2sLgNSkRoHQCuixEJSCX0ENCkMECTkEWAS4zIgVqndA4yENapEGwA9zIe8CjBpFwYySQMO5DzoEpRkQaz4mJoRB6S786hksn+QMvKuBcnEX0RjpB1IoXR/HTlRs8TCzp/H+IDokcZHR5KWLpntj/A5QJDUCOe6tBGQ05yT64XWPOcUKSAkbfBw9FlNAslxT7M0nJVyZCRFWTkWgYckqmZSXBlADYjTANiY515n+bgO6DPNZoBFCQxQPDPwJhI5wn5xTBxsRhZWUGNUSHjVAwGgeNIFgIR10sPij5SID6CGKzc4zQCTRKsPK6u3Wn1YkThlFqo0l+koSsJauweAfI0cqYHeDoCKI20B+7nWBhFTYqGfyuWkMkbD2lHTwQMaUQ1LFxUHZSY+WPVcAlneqLgwlig6TyUWYrjQ7p6lsAoyL0wdzY15Xf0EYCqdcANhclppvJ0gEc2pgM0EXkq1usHqNQ7X2dQkOCc6Ffx2YQJxyMTCVBHOa8SBDQ0A2HsApc3yfuJroPTL6nUDSsLmhg8y7LkZ+v+w96GGPZvF57Q+vkXqODqglXI0X0xi+GxjGSt1bhunaZIyokDlR0qkeapZ+ixsdVgfaJ9Cgpyehtng0nzR1a9nYnqSndf1bPAEgV2jjWJs/+JLRulHLTSnjevrrDLX13dPoS6VxBOC4EogRtoyYcBGAzHTD394YGNEoXvGQvreq4V/AODh9SbjYbPdHi9Czv/3Nx94dbw10ds/);lineShape=1;" vertex="1" parent="zToJMufdmCH1j626jx_x-1">
          <mxGeometry x="445.8965075049241" y="141.87188293550298" width="16.697758399707254" height="18.257448558530996" as="geometry" />
        </mxCell>
        <mxCell id="XwqilFFjm77eaxbNXKab-2" value="" style="shape=stencil(nVjLbhsxDPwaXwlK1POcpv8RIE5jNI0DJ339fam6WlvU7gTpzd7laClySI60k5vXx7uX/c7z69vp+HX/83D/9riTTzvvD8+P+9PhTX/t5HYnNw/H0/7L6fj9+f78/+WuWbZf344/2gq/zrjKVF1Def7970kll/8++XwGPB2eR0AMIyASh21AqdTeXQM8CQNAoloGgC4hDgCEYhoBkWrdBuRCcdx0UZfAprOjEgeALpH8NiAJFR4BoS+xCoiBQh4Bjli2ASFQHqOUMnmwaYk9rwtAKJVtgE/dgQXA5MEeXKY8RilqKkFYHffXC0A6HdejRHX0KHLnyvoWKI5ZCIUc4CpTGokUIglYn4nN+p4y8J/JjbwL+gSUgiM/1ppkioB20itxsdfaBPaR0uiPaMRQ4djKlHcYwbYy2xJow57quIPmYwKASN58QSggQKYycqhFGexBk2ZI5CqsTHXAlIFL/ck6QAt3dMlpN0Bp1tYwblrjxoCnjQamy0OeSrXEy9AhbUbRVD4x4FGoVEyaqaC615COOeD+YKubGt4xBWQfqRRjj4ZgXMrwYo8oEXWATfbAn6QJztYe5Dd5SjY+HhRBmijKsK+k0MN3sS9gv2maZg7GU/2p1j4A/qSpTTjKaP1luYs9GkyaLzNccX3FqTH6nsB1+0S+WH9AvpTPJdn9IjWh8mOKJ/JHe6Yz9mhOqn0cOxbj+g3knbFH+dV6nPjmkT+qMyyfYfwL5Q/V4zQDGGpe5aez8XGIz9Lb61V8cD2a/sx9Q1v20eaXUX/Q9c3MI0H+f9Be68sIOZWiqH+q2B33G6FO1PmSR/6XrrzW7VVkmJHNJEh964FgTJhO4ITU9yI8r2Y8OqNImFREhqcgFQVmBqtOiQCgMTFBal0FsKgdCMYvaNoKkt9Ka9MWE+yjrY0YXVD65FxXc6XrjCtFipikejGMnVQlLzpCaF6zoWqE5yxlTjaiOsNz1qQN2qEAbKFQGbeshw4kkatlnrLdIw3OtlmEDLu7k0n9YTmhWRMDEBLQT5ucHPuLdnxUnyJ24GjLiSAJGkMZeaE9mdFI8/aslRJknmoQc/DIDJtkdtalHLpsWAdUSka1F8ykZO9yCtZF1dn6LBFzO9rBWSqczLXYS4eqsxSxeyqfGuEsdzyd2tuVFwiTvjYV1z4K6KqvjTy6PNnadZ0A6IBTixUYdTlSrQOyvf1RQEWAZO8qrgK3lWv2H0OIlW3NKZRs319fbxsD5jhllAlnR1ZLHS4JngKL7hL/58b1PYD+uFzwPhyens73w9fv7YWwPjpfJsvtHw==);lineShape=1;" vertex="1" parent="zToJMufdmCH1j626jx_x-1">
          <mxGeometry x="479.08627333261416" y="146.44189489755377" width="31.337527944693647" height="166.97560403143848" as="geometry" />
        </mxCell>
        <mxCell id="XwqilFFjm77eaxbNXKab-3" value="" style="shape=stencil(7VjLbhsxDPwaXwlJFPU4p+l/BIhTG3XjwHH6+Ptya2i7pL2D5tZDbpsNx+JjOORqw3evu4eX7SaF1/Pp+HX7Y/943m340yal/fNue9qf9WnD9xu+ezqetl9Ox7fnx8vfLw+T5fT07fh9+oWfF1ypJHlCpfDr8iY26vLnzecL4LB/XgCkEFtAqhTiOiAH6t0A9E0I6wBmymIBlSKvA5JQtSdIpgIAsVAJBlCECoghineptHHmbQBTSwZQAwkCROrWpRqpgRg6tWjtE+W8bl+pFG/PwCEZ7i78KQ1UjWr0ATPgURolXWQ0g99XFlnalUIR2idbgMIkFdkHR4kwSrhiz9ZeGgXgT6TgOKoZBpRLvs2EKRXw++quBUxdAwKO3Xe+9mUBJyQN0FJIO7WCE1jbzNZAWdhAjtTjattM01ABqaUOrZoBEapX6ZQsTbWRBLRZbSTNZomherXqg5YO1as3iq7TOgXAvN79CS3BoGO4Ird6icikRyTrU48kIOpeR3PNAKGEopYR4wxQeoEg+pVATnkA7GtaOfGADlxq4lu6Y5HXtIslU9fhiFwKlG0H9QRdUiawZZ9GhVRpAtgTWqaMYlCXHJkCjmEeMzNdy6jMWlqdEtc8pula4dywrSp9wCWlhp+FDIPu2Q+TKlC8J3q7E1TJkEt99Nec1jiEZA3gtiTNWwPzYWK/o3egiGSjUXKATAHFIF5cNQ2wp5XMlq1TGkDQbe7gefkMeDdsZSwViyMYRN14sHkRBKMT4pChRZrQHH03QHfNbsmkqwwai7pZFLcL5DEo1+ZosSdIGMW/Pann3WWxnSSQJd0F3KQuESrZxwb9sUH/5xt09l2WVVrwR2Gz0sKVMmoa9o0/cRB4xOlqW1WKAkrrBi+2ZuokVIo2KDmLF2wy3WWrtY9QflUVxJIUbxdKsRycPZoHqqVuUQ0jZbftqxe6CC8vylV+lFWgAPp94UagzgLgv7Z4d00GR6xKSLb5bHCtmOxtflQm0ceFAqItgApxRoAwdrMF5QqiRPefkbHCb4t3X1H9A0Af/t6IPe0Ph8uF2vL//gZNX11u3/j+Nw==);lineShape=1;" vertex="1" parent="zToJMufdmCH1j626jx_x-1">
          <mxGeometry x="481.6560752946291" y="142.860164610403" width="27.243464785475226" height="21.116015812397336" as="geometry" />
        </mxCell>
        <mxCell id="XwqilFFjm77eaxbNXKab-4" value="" style="shape=stencil(lVnZbhtJDPwavRJ9H885/iNAnLWwjh04zh5/v9Ur9Ehdoykjb7bEmmGTxSLZOsUPPx+//Hg4Bffz7fXlz4e/z1/fHk/x4ymE8/Pjw+v5DX+d4qdT/PDt5fXhj9eXX89fL///+DIsx1/fX/4aT/jngqvZUhmo4P69fNKb9fr/J58vgKfz8y2gWWsroFhvx4DmrOYVkC0HAQgWyaVorQgAvvYrwFtLApAsuwXQuqUsXep9BRQr4g21W6krIFpWYU3WCOAs9mNAaeZXQK3mRR5yn3ndAFEmLiNxa6arsyYSl9xM0wSUKvMQPZ+hJOsCEKL5lUsFZPHHAF/MpwWAMFQR1m4trvbVYhRBMrdSL+METjjEac5BMs+x/6lPKh7Yu5XZqVoW/ntL9Pw8c3I/ZdbWQkgoDcEJcDKs9mCVSpg3tzoUm1QLZJhOHIsFcQKEqNMbkjlRB8gxKR5420XOIupgdWnQSiQt7liEuDX1hsbyAierOHTyLMLIZBWVltIM4gbAIwSxB29WZnhdaXgDqbavUo9StEKAMt95dGjqbT5Nuh+FlQTMBxklUM2tcgH+epU4CBi1KsuKGY4Fr0mRBw3iap9luQWkmbhtWbRaVDt1TgiO4l2elXJjr1iEPuzZXvgD9cyB7IOyT3t/1HlzYX10skHBvq3P93OYObL3RCBZx/Cf8hvmA+7bb0V7tU8q/m12o6u95APiWdhel2Ru7I/g8xA6fn7QBUl8gFQL/kN5YyV71W2GfSJ7L+IJf9KaXydVdDQ7tlf8GRLH9eLViJZ4pnOz9RzxIezsNd8y14scSqE/fF41DqFeXCH7Jvwf9cj5CiI+o96pi1lR50Xn5npR8YRe7fgcVb76vl4UP3/bPvFigyarenCaX1/7i5q/wR+aCqp8/tg5aPeT/TTHGb4tX052bCSMp44g96zcuANjiFATcnFTEW7GFNXDACANHYPQOwA6Q5dDOHaevBvm1BaBMqhr2oKekZEH0rlQZOIGUdfEYbIJelykKGE2iqp1dC79GKaT9wGJuYdPstpG+6Tazeqh1B1B5E2iycUg7DYJCL7SFzCH6gFTsxdnAJnzSm+MbFEtsGHn0jsbJiSPVsY+w3DkktvtyKrpo77qemi0laymZDcXjQ1QrIszQLVoyURJqb4c4+4qRF9JJc9sLUmyFZ22EKDKVgIH+nqG6uYweX919zwL1jjJcnTTR8NsLbI7t8rTdXNynOqBd/cW50B2H1At0E3f1uHvA/okwu3VoJB773ZXLvBS7Ti9zZF3AyQ5tPXdktDzvEa6D4hzyNkAdc659xPRZxffAF3GtTWWPgCUCiDVJBsAKK1EnkiYeteXurtRbORSAeJcha6zg95Om2cpexeBr8POKSEctfEAOo6tANut721gRSZQk3uAvJrOPNMPcgh5BSDszqBGpt//EeJ9AP64/ubx7fz0dPnJ5PZ7/o0EH11+X4mf/gM=);lineShape=1;" vertex="1" parent="zToJMufdmCH1j626jx_x-1">
          <mxGeometry x="523.5716892920227" y="136.79707000417238" width="22.369143358096608" height="186.78207815346627" as="geometry" />
        </mxCell>
        <mxCell id="XwqilFFjm77eaxbNXKab-5" value="" style="shape=stencil(lVfZbttADPwavxK75J7PafofAeLURl07cJwef18KwioiKw+aNx87Wg6HQ1I7eXg7PL3udxzebtfL9/2v4/PtsJMvO+bj+bC/Hm/6aSePO3l4uVz3366X9/Pz/P31aTo5ffpx+Tk94feMy4FSnFAc/sy/xEZl/uXrDDgdzytAEirVADhRz/cBItSbAUilCAD6PAkGkCMFvg+IhbrlUBIFwKGNgJcLGoUCLlCG3QBSoYIoMNVkOesNFSQpULOc9ZcIQpI+Il7JgG5QoZtYQBlBbgJKoO44FJJ2H1AjFcshaaJBSE2zZEup8CiuTUDP1NgAaiEGOvTqOVQNKQBAJ7FKa5BJQGmEQMGyboUSUE6vqJZED5QR6zb+XgDqEBBT1+K0jtM8CEpTIrZpmvIADNQjZUt6lYdtrZvXeroCpEmzKNGTSKBeW/LSKS0kRBPi6IWooM9oKTRXHJppBBBKlrQ+AkmtHNwNtcPWpwG4zqSOQLXROmXbN2oaymxLzSTsARmEpCZ1hqgZTpSpOB2gYpM2T7pFiqAzaal54TTIDgFuomjeGJFWmZyDhCKo1om086i2DeTRJeIFoJZCHJbGtXJcR7XUqRQPgH6oFJoPidHc/SygMgXL4WNm3BtarvWVPibrvbGYbXnrLpCBgZL6wXpaH1HQpM7Ebp1R04IbuFJz64yuUGg9aePvxUCMS2P4cdVlUC8Oo8st5wVuAv+MxNzHvNgWgdiKlrTwwPm4zL9lNclw4ePkp4/GiFYTXXWySxFl4E7disVKEOHsSdrobb8I0P26byZ/Ho3b1Px6qOskquruJQ4jwG3F4sj3ktBh7e3zTNEKIFTReRljbykhaiA/et7p1eD6rOcd36iNAAckVoDIsIKUsetEMVMEptSUeoC+J4Gi/vSr238A9MPHm+LL8XSaXzTX//s3S/1pfiuVx78=);lineShape=1;" vertex="1" parent="zToJMufdmCH1j626jx_x-1">
          <mxGeometry x="518.6303566548099" y="136.79357463167935" width="32.780878801098424" height="21.985323486846255" as="geometry" />
        </mxCell>
        <mxCell id="XwqilFFjm77eaxbNXKab-6" value="" style="shape=stencil(lVnLchw3DPyavaJIgs+z4/yHqyxHW1Ekl6wk9t+nmS3OLjA7Lfu2GqGHBNANgpiTfvj2+OnrwymFb2+vL38+/Hv+/PZ40t9OKZ2fHx9ez2/4ddKPJ/3w5eX14Y/Xl7+fP1/+/vppWs5ff738M9/w/YIrUUKaqBR+XJ6MLlr+f/L7BfB0fr4B1CgaLaDKGATQJXQLKNLSMaCplGIBWVIjgP0KSYoeA3rcAYLkTgBJWjWAjjUzXWHYKPUiynxo3mmsWUlYW5CeDaANGcTpmtYGNkCTSHwoO6dbFiVRyklGsIAotR4DFJm2eQBZBlkhZcnDAipla6xSLb2rSiMrxODpDcInskKRbBcoXRpJQ5Jog1qqpHBsD2LamBaVSu2Dsw8ySA5AIzX2metfF2c2+yKdvL9KsKzLSHo8th9L6ps94k/sY/IcUs6hWGRYpWnllMD7rMuapTKWRsk2pgotE6UhqC7JGqQyEmXp1ofUpZBqMdNgo4QnhaQ5tRX1DZClkDwDUN2W0nuAbJUALlLAds4sADJTWB7gtM3DLAcsSgirjVLEEyI2JK7aKEWVQNiKmDh6R9CbbQn6tE4P6gJC0qwLbR3w9+2bqKVeXufKYUF1Hq8CePR+xyOUI3IOTrE1Z09JEaUFZ5+Y1IpEv5/AdNC90rYCe788bp3H1T4ye/RC/v1KlI/iFoezZ7VIx6oL13xFQlDY9+DsC8kX9uPsExWAbgq82ivhM1qEnX1l+0G41dl3wk/UCNcVvWOf9v6y/cRdPLm/0MvOXxbPqUdXsmi+YO9LHOUD9JhslQ68hIa9HpUffSM5e6YXlLPi+U/1GNfyP6d3HO07PbJ6os13pLxeQV/Jv5+1Z1OPNv6ot+/o9xfti7XfAnBk73r8Ss+LjPPL6mtIJvxEt+fqLQ7IQAiHS4e7B6Ej7KSCov/s7gTLq3W5D9hRAiJiGkNHnPeNCtsSDgEnerCIRbX4rn2WIb5CcmUo02vKjJIDVA5Iq4+5aUkbSxxctMpH7R5Myjj6HCDRXgJnq7tr4QkVf1wubgBckXl3ENxdYvByl32nD8KzTO/7v2tmDg8Qu6W89f5H9yEXVtwAM8k05OJakHnF5IBsawDusJkUvXlFs3kohVZJ6Mt1pbiFs3FL2o0qauCdfvfzmap0LgCquVtjLWueciRRd1OunY5bSvYCapH2+jWvudsGUGmEfC2vqG8Afmvs2ReBNujxM5IfJ/RE70Oj3RmssQM6ht1EpKOQEG6M7r0egY44RtkNLJXuqQ9fvvEKRiYExU2Z5tCVbAmJVbelThNRk9foGNIYIKwpyw2gs0HZWDG5AQwGaN6Hm1zeRxQ/eJlLEDahDrlucgKIhEr0lWl6TcKE0ui5MegsKA9/gQQgM0C/s6VEfMi7EcFkPDupx2rJbwC0lO2aUADYKffLXyF+AoAf148eX85PT5dvJrf/9x9J8OjygUU//gc=);lineShape=1;" vertex="1" parent="zToJMufdmCH1j626jx_x-1">
          <mxGeometry x="572.0601910568475" y="145.14798023476715" width="21.041488664088774" height="172.52482368546544" as="geometry" />
        </mxCell>
        <mxCell id="XwqilFFjm77eaxbNXKab-7" value="" style="shape=stencil(7VjLchpBDPwarqp5SPM4O85/uMo4UCHGhcnr76MNNWskdrviWw6+ATs9o9a0WmI3+e519/Cy3aTwej4dv25/7h/Pu03+tElp/7zbnvZn/bTJ95t893Q8bb+cjt+fHy/fXx6mldOnb8cf0w6/LjgJ1POESuH35ZcUKMvfXz5fAIf98xWAI9VgALlQ5nVAFkpsANwop3VAEuJuAKXBkGKnVAygMTEIKVZqlnRPFEFIsVCxpDtTbwCgj8UCKuUIAGnsNwMa9Q4AgZoLqVMP64BGYjnHECgAQBm3dHVAApx5PL2iXAGDRGJ10WVkeZkxJUc4UQOyCEOWsyr6kO7K+mD3b5qBjNanaNenUUsr650kqsYDJNEo2v2LyhYpgke6B0ASMUhQymO/uZQThQpKWQlaSUShCChzIbaaEAqgMEvyd9CpAAZV/P6qEmQVKrHozCiNa1kGVCo2RxMnQEGLJFdLWS8eJPWqDGdEgdegR4hTRhxaXCPRrUEWoYZIyM0JfZjyMkCVZpVRtU8UIO7uSVfdAkipqTncnMDAs7UaizU8bSOIdJsb3wzgkbdl9SkHl6VAEThkbVTtCSJji7UTXN/hDvtO05xY9bGMNCwDmKID6D2gNlKJLWkOsEa7NqriAYLEpyGJDykg8RU/w/Bc5suA5n1M05pBWqfWakkLY5/pvjtLH/13LSRxQ4+egEm7e1B5MzKBTOIqLo67X7s4dw9aoigk7Zf1pkQ7qjgNyflSH2JZBdT3AEr2IenwiYYYvddkT8h99JjlFsc3JRopAF/Sedi3afUR1KarL1H1kQhIf4y3H+Pt/z/e5vF0Xq8non950TukjrcNHKA3UGxEOr8il9dh01mqkipoHm5+YmCYUrWS5g6gDK5MncRpKEBJcCYubj0aJLVNsvj1KJ468ve2HrV+7arRxhOhreikXOz+efTd5fVxDHRzO4D5V8E4CWmAgO8kMOu86mMBOK8CHIGI//AoIFgXmswbnfDe9zX/ANAPb6+HnvaHw+Xt0vVz/zpJf7q8isr3fwA=);lineShape=1;" vertex="1" parent="zToJMufdmCH1j626jx_x-1">
          <mxGeometry x="566.3437922382022" y="143.85940874339053" width="26.112547962830604" height="17.343568769422745" as="geometry" />
        </mxCell>
        <mxCell id="XwqilFFjm77eaxbNXKab-8" value="" style="shape=stencil(lVnbchoxDP0aXjWW5Yv8nLb/kZmQhmkaMiS9/X21ZRywzB7KGyE6rO460m7k7u3p/nW7ieHt/bD/tv21e3h/2sinTYy7l6ftYfdunzbyeSN3j/vD9uth/+Pl4fj36/0iuXz6vv+5/MLvIy5VCmFBxfDn+E1T4vzvmy9HwPPu5QxQIhUeAZWirAOqUHKATKkCgJLkERApJQho7gmBuEFAagNAzQ0FAApJHAGCbYhdgQ6ojWoAbi1UR6NrJkVxYEoOwNSASrl4lYpCozNTcYBEEbg1KcUyAgJloFIqXYEOyJVEASCRjNmaE2UEEBIZAeYlkK0G4FGl1Ho6rgHCmBpmVUVeEopjtqYrbhUqTiWmCuphBojZACK9GD26VawekErmRAdI1JCXgveSRGpAJVNAx+QTpsAAUHwji40YRFqEtI4AnHymQBltiBnGwRQoOgISMbDBFGjuCZEy8FIsk0rYS6ZxHlXiBnuraVxGt7J2R18GRG802zNBHGLonfQDgHsrT62SrR4QgP184ABrulBOY7fHcfYtAw+T4BM1w/kZSEd/Sm/8K7qz8yYMl1k29scAE44tH4OTjxHImyvUyQeUDBaqSR7lc+lT9STPqK2EHsmTPPKmNYlSnbyCVJPshyyTXJF3udz73po+LjUjCZIPvfZO8oqqt/RucMo2NAhMXed/gclstateHjE1yzdHKeRKOufszC2wWBz/sMeBX88UfLAKUD5TESfOiDPOpYgYo3U19qksqBTzXLoBjLsYPA0PuPFbKk+li1KnzfoI6LJGGNTbW4G9xki0OPej4FopSnLyV34/+lJEqX+rvPnH2ZsoIf2tkzn2jenM1NoqXDhEfStvUJ8UOyM8G9OMuLqNrpHMGBFABZM++NoZ1YA8Vz31tvmkGOBWIKNLgoxuFB2pDD2Ma4DmWlCEZWz7i+PqUeBIytHXsVVqQnufUHOJWnuruQzIfmhYH0bbQJ5oqyWvgjGf1aeG4DmWLUxjpJd2gLzUpn3DqAsG+BWowXozQBr7+7LGIYB2Vnu2KMLU0Gl3xauobdttXnZRalQqY6Qz5itZPb+xhT1hL6kD1E4B1u5RbuwUa4TASyV7t5YEB1WdOFSxroEuXtOlpXKf7ZdZS+yk+Oz4g84aqv4eVRt0axN/tVPpFXIZUKeLV4ELe7PAjYAWere9zEfCtAi1CCfuotPoppZgc2083So/Os9aINQ9QeH+UacbmfkhoBrN/SJ2BoAVJJ4mGQDe+di3vjNPr80g5lsesRyN5RYjUvaD1wAVX6Tq9AR46It+ETEA2rzStLUbAE25CwDtI2AN4HNDO+VaNZo9AF1C0kS5DQBPibde+/8DYB9OLxced8/Px3cT5//3LyPsq+OLDPn8Fw==);lineShape=1;" vertex="1" parent="zToJMufdmCH1j626jx_x-1">
          <mxGeometry x="613.4393018456401" y="141.89204055053733" width="18.642292476033845" height="174.8211650172634" as="geometry" />
        </mxCell>
        <mxCell id="XwqilFFjm77eaxbNXKab-9" value="" style="shape=stencil(7VjJUhtBDP0aX1XdUm86E/IfVGGCKwRTxtn+Ppo4bSzZvIRLTtzGY2lay9OT1Cu5er6/eVqvOD3vd9vP6++b2/39Sj6smDeP9+vdZm9PK7leydXddrf+tNt+fbw9/H66WSSXpy/bb8sXfhz0pFHKixann4c3WaiX328+HhQeNo8nCqxU2ClwIWWgUCk3pyBCpb+ukJWqOoUySAZQqNT9CS1TakDBLA4KlUaCCtmb1DppBQpCSbyC4hMyVW9Sz8QgD/a57uV52nhRflAqUb4BgxpxivJFXpcvVEq0v4PvM43gb6KCckbV+9vGzPpF+UQtJKBRBzBNlEKGzSOQYZP38WlMCYA0kVQnXxXaX2KZlQ4BZP96+8WqAiE0U/EO2JGcgUKj7DOcmRR4bCnu/gQhBhYtBnsX8ozZ5Qg1Gp66lBrIcG2T2I4eCzzAWCRgVAzTwGMjhTx80jCol5oKCoZqkITeqXkfzKuKyt54yteB1dkA7Ks9pnlk6IMOGh7Zo8BKUKMuD20zkpFJSupNUqtufAIHZAgpdjpAVRvMtNZI10sYAD2aAck7vYQBJE7PCEMVJs6COCSahBhg1EmIJ043kGnLK5cY1gEqbgjV4EOiCuBtCt0nzrzKgPXMpOCDfUJB2xxtgvkE3ogExojDRTeaAT6ofS905kEKfNASoWEnCFJosdeOBHuJAUFajFJGaD0bwSxuGXXndNYPh30DzS96hg1rJyiug9hzpRUhGjwtTHJWEKgBLWj2XpuRqCA0x4I4icNraAr8vXAVxmtInXEVmkverNAtiiHXFebaGkgNeO24LdZZw6ezHkj1Mhr5KNlwhWquljhu2xtB0+qYFXZsvBVSmWhs7cLE4ARJc1w7ma8ELVZn44mdgJoWH2v46IPAkd4Wq6BQ65wO3vek9z3pj/x/2JNA/N+6J+XI2QsXADy0OOnZiI62BkNoABALnMOyxdsrWFUgeuQ6ieRlT0L3I+ZCCFGeZXpZvsehyqgJ3/BwDfIZ2L8wXQvyqAcarZUoL4h6ZVLIi79oeLE9MtjPsyVelm9xsMDLgsmrl68wntKne8cShgAyeQ4dHI60Zk/Yp4wk/6Lwtju/f1Cwh5crxrvNw8PhhvL0/3glaa8O15ly/Qs=);lineShape=1;" vertex="1" parent="zToJMufdmCH1j626jx_x-1">
          <mxGeometry x="608.2253654392312" y="141.85666888806873" width="31.919990277850502" height="24.91889031065125" as="geometry" />
        </mxCell>
      </root>
    </mxGraphModel>
  </diagram>
  <diagram name="Page-6" id="gCiq4alQDNLE-7aOz6lE">
    <mxGraphModel dx="879" dy="1335" grid="1" gridSize="10" guides="1" tooltips="1" connect="1" arrows="1" fold="1" page="1" pageScale="1" pageWidth="1100" pageHeight="850" math="0" shadow="0">
      <root>
        <mxCell id="cQ7loPx95OwYAi-lIVyv-0" />
        <mxCell id="cQ7loPx95OwYAi-lIVyv-1" parent="cQ7loPx95OwYAi-lIVyv-0" />
        <mxCell id="cQ7loPx95OwYAi-lIVyv-2" value="" style="rounded=0;whiteSpace=wrap;html=1;" vertex="1" parent="cQ7loPx95OwYAi-lIVyv-1">
          <mxGeometry x="270" y="40" width="610" height="460" as="geometry" />
        </mxCell>
        <mxCell id="cQ7loPx95OwYAi-lIVyv-3" value="" style="rounded=0;whiteSpace=wrap;html=1;" vertex="1" parent="cQ7loPx95OwYAi-lIVyv-1">
          <mxGeometry x="40" y="40" width="230" height="460" as="geometry" />
        </mxCell>
        <mxCell id="cQ7loPx95OwYAi-lIVyv-4" value="main thread" style="shape=hexagon;perimeter=hexagonPerimeter2;whiteSpace=wrap;html=1;fixedSize=1;fontFamily=Ubuntu;fontSource=https%3A%2F%2Ffonts.googleapis.com%2Fcss%3Ffamily%3DUbuntu;fontSize=17;" vertex="1" parent="cQ7loPx95OwYAi-lIVyv-1">
          <mxGeometry x="110" y="-20" width="120" height="50" as="geometry" />
        </mxCell>
        <mxCell id="cQ7loPx95OwYAi-lIVyv-5" value="" style="rounded=0;whiteSpace=wrap;html=1;fillColor=#d5e8d4;strokeColor=#82b366;strokeWidth=11;" vertex="1" parent="cQ7loPx95OwYAi-lIVyv-1">
          <mxGeometry x="40" y="300" width="230" height="200" as="geometry" />
        </mxCell>
        <mxCell id="cQ7loPx95OwYAi-lIVyv-6" value="main()" style="text;html=1;strokeColor=none;fillColor=none;align=center;verticalAlign=middle;whiteSpace=wrap;rounded=0;fontFamily=Ubuntu;fontSource=https%3A%2F%2Ffonts.googleapis.com%2Fcss%3Ffamily%3DUbuntu;fontSize=16;rotation=-90;" vertex="1" parent="cQ7loPx95OwYAi-lIVyv-1">
          <mxGeometry x="-10" y="370" width="60" height="30" as="geometry" />
        </mxCell>
        <mxCell id="cQ7loPx95OwYAi-lIVyv-7" value="STACK" style="text;html=1;strokeColor=none;fillColor=none;align=center;verticalAlign=middle;whiteSpace=wrap;rounded=0;fontFamily=Ubuntu;fontSource=https%3A%2F%2Ffonts.googleapis.com%2Fcss%3Ffamily%3DUbuntu;fontSize=16;fontStyle=1" vertex="1" parent="cQ7loPx95OwYAi-lIVyv-1">
          <mxGeometry x="125" y="510" width="60" height="30" as="geometry" />
        </mxCell>
        <mxCell id="cQ7loPx95OwYAi-lIVyv-8" value="HEAP" style="text;html=1;strokeColor=none;fillColor=none;align=center;verticalAlign=middle;whiteSpace=wrap;rounded=0;fontFamily=Ubuntu;fontSource=https%3A%2F%2Ffonts.googleapis.com%2Fcss%3Ffamily%3DUbuntu;fontSize=16;fontStyle=1" vertex="1" parent="cQ7loPx95OwYAi-lIVyv-1">
          <mxGeometry x="520" y="510" width="60" height="30" as="geometry" />
        </mxCell>
        <mxCell id="cQ7loPx95OwYAi-lIVyv-9" value="int myInt = 10" style="rounded=0;whiteSpace=wrap;html=1;fontFamily=Ubuntu;fontSource=https%3A%2F%2Ffonts.googleapis.com%2Fcss%3Ffamily%3DUbuntu;fontSize=17;" vertex="1" parent="cQ7loPx95OwYAi-lIVyv-1">
          <mxGeometry x="40" y="300" width="230" height="40" as="geometry" />
        </mxCell>
        <mxCell id="cQ7loPx95OwYAi-lIVyv-10" style="edgeStyle=orthogonalEdgeStyle;rounded=0;orthogonalLoop=1;jettySize=auto;html=1;entryX=0;entryY=0.25;entryDx=0;entryDy=0;" edge="1" parent="cQ7loPx95OwYAi-lIVyv-1" source="cQ7loPx95OwYAi-lIVyv-11" target="cQ7loPx95OwYAi-lIVyv-28">
          <mxGeometry relative="1" as="geometry" />
        </mxCell>
        <mxCell id="cQ7loPx95OwYAi-lIVyv-11" value="int[] myArray = 0xAF10" style="rounded=0;whiteSpace=wrap;html=1;fontFamily=Ubuntu;fontSource=https%3A%2F%2Ffonts.googleapis.com%2Fcss%3Ffamily%3DUbuntu;fontSize=17;" vertex="1" parent="cQ7loPx95OwYAi-lIVyv-1">
          <mxGeometry x="40" y="340" width="230" height="40" as="geometry" />
        </mxCell>
        <mxCell id="cQ7loPx95OwYAi-lIVyv-13" value="int[] nums = null" style="rounded=0;whiteSpace=wrap;html=1;fontFamily=Ubuntu;fontSource=https%3A%2F%2Ffonts.googleapis.com%2Fcss%3Ffamily%3DUbuntu;fontSize=17;" vertex="1" parent="cQ7loPx95OwYAi-lIVyv-1">
          <mxGeometry x="40" y="380" width="230" height="40" as="geometry" />
        </mxCell>
        <mxCell id="cQ7loPx95OwYAi-lIVyv-14" value="int i = 0-&amp;gt;1" style="rounded=0;whiteSpace=wrap;html=1;fontFamily=Ubuntu;fontSource=https%3A%2F%2Ffonts.googleapis.com%2Fcss%3Ffamily%3DUbuntu;fontSize=17;" vertex="1" parent="cQ7loPx95OwYAi-lIVyv-1">
          <mxGeometry x="40" y="420" width="230" height="40" as="geometry" />
        </mxCell>
        <mxCell id="cQ7loPx95OwYAi-lIVyv-15" value="..." style="rounded=0;whiteSpace=wrap;html=1;fontFamily=Ubuntu;fontSource=https%3A%2F%2Ffonts.googleapis.com%2Fcss%3Ffamily%3DUbuntu;fontSize=17;" vertex="1" parent="cQ7loPx95OwYAi-lIVyv-1">
          <mxGeometry x="40" y="460" width="230" height="40" as="geometry" />
        </mxCell>
        <mxCell id="cQ7loPx95OwYAi-lIVyv-16" value="1" style="rounded=0;whiteSpace=wrap;html=1;fontSize=18;" vertex="1" parent="cQ7loPx95OwYAi-lIVyv-1">
          <mxGeometry x="440" y="110" width="40" height="40" as="geometry" />
        </mxCell>
        <mxCell id="cQ7loPx95OwYAi-lIVyv-17" value="2" style="rounded=0;whiteSpace=wrap;html=1;fontSize=18;" vertex="1" parent="cQ7loPx95OwYAi-lIVyv-1">
          <mxGeometry x="480" y="110" width="40" height="40" as="geometry" />
        </mxCell>
        <mxCell id="cQ7loPx95OwYAi-lIVyv-18" value="3" style="rounded=0;whiteSpace=wrap;html=1;fontSize=18;" vertex="1" parent="cQ7loPx95OwYAi-lIVyv-1">
          <mxGeometry x="520" y="110" width="40" height="40" as="geometry" />
        </mxCell>
        <mxCell id="cQ7loPx95OwYAi-lIVyv-19" value="4" style="rounded=0;whiteSpace=wrap;html=1;fontSize=18;" vertex="1" parent="cQ7loPx95OwYAi-lIVyv-1">
          <mxGeometry x="560" y="110" width="40" height="40" as="geometry" />
        </mxCell>
        <mxCell id="cQ7loPx95OwYAi-lIVyv-20" value="50" style="rounded=0;whiteSpace=wrap;html=1;fontSize=18;" vertex="1" parent="cQ7loPx95OwYAi-lIVyv-1">
          <mxGeometry x="600" y="110" width="40" height="40" as="geometry" />
        </mxCell>
        <mxCell id="cQ7loPx95OwYAi-lIVyv-21" value="0" style="rounded=0;whiteSpace=wrap;html=1;fontSize=18;fillColor=#d5e8d4;strokeColor=#82b366;" vertex="1" parent="cQ7loPx95OwYAi-lIVyv-1">
          <mxGeometry x="440" y="90" width="40" height="20" as="geometry" />
        </mxCell>
        <mxCell id="cQ7loPx95OwYAi-lIVyv-22" value="1" style="rounded=0;whiteSpace=wrap;html=1;fontSize=18;fillColor=#d5e8d4;strokeColor=#82b366;" vertex="1" parent="cQ7loPx95OwYAi-lIVyv-1">
          <mxGeometry x="480" y="90" width="40" height="20" as="geometry" />
        </mxCell>
        <mxCell id="cQ7loPx95OwYAi-lIVyv-23" value="2" style="rounded=0;whiteSpace=wrap;html=1;fontSize=18;fillColor=#d5e8d4;strokeColor=#82b366;" vertex="1" parent="cQ7loPx95OwYAi-lIVyv-1">
          <mxGeometry x="520" y="90" width="40" height="20" as="geometry" />
        </mxCell>
        <mxCell id="cQ7loPx95OwYAi-lIVyv-24" value="3" style="rounded=0;whiteSpace=wrap;html=1;fontSize=18;fillColor=#d5e8d4;strokeColor=#82b366;" vertex="1" parent="cQ7loPx95OwYAi-lIVyv-1">
          <mxGeometry x="560" y="90" width="40" height="20" as="geometry" />
        </mxCell>
        <mxCell id="cQ7loPx95OwYAi-lIVyv-25" value="4" style="rounded=0;whiteSpace=wrap;html=1;fontSize=18;fillColor=#d5e8d4;strokeColor=#82b366;" vertex="1" parent="cQ7loPx95OwYAi-lIVyv-1">
          <mxGeometry x="600" y="90" width="40" height="20" as="geometry" />
        </mxCell>
        <mxCell id="cQ7loPx95OwYAi-lIVyv-26" value="int length = 5" style="rounded=0;whiteSpace=wrap;html=1;fontSize=17;fontFamily=Ubuntu;fontSource=https%3A%2F%2Ffonts.googleapis.com%2Fcss%3Ffamily%3DUbuntu;" vertex="1" parent="cQ7loPx95OwYAi-lIVyv-1">
          <mxGeometry x="440" y="150" width="200" height="30" as="geometry" />
        </mxCell>
        <mxCell id="cQ7loPx95OwYAi-lIVyv-27" value="..." style="rounded=0;whiteSpace=wrap;html=1;fontSize=17;fontFamily=Ubuntu;fontSource=https%3A%2F%2Ffonts.googleapis.com%2Fcss%3Ffamily%3DUbuntu;" vertex="1" parent="cQ7loPx95OwYAi-lIVyv-1">
          <mxGeometry x="440" y="180" width="200" height="30" as="geometry" />
        </mxCell>
        <mxCell id="cQ7loPx95OwYAi-lIVyv-28" value="0xAF10" style="text;html=1;strokeColor=#6c8ebf;fillColor=#dae8fc;align=center;verticalAlign=middle;whiteSpace=wrap;rounded=0;fontFamily=Ubuntu;fontSource=https%3A%2F%2Ffonts.googleapis.com%2Fcss%3Ffamily%3DUbuntu;fontSize=17;" vertex="1" parent="cQ7loPx95OwYAi-lIVyv-1">
          <mxGeometry x="440" y="60" width="200" height="30" as="geometry" />
        </mxCell>
        <mxCell id="cQ7loPx95OwYAi-lIVyv-29" value="1" style="rounded=0;whiteSpace=wrap;html=1;fontSize=18;" vertex="1" parent="cQ7loPx95OwYAi-lIVyv-1">
          <mxGeometry x="440" y="310" width="40" height="40" as="geometry" />
        </mxCell>
        <mxCell id="cQ7loPx95OwYAi-lIVyv-30" value="2" style="rounded=0;whiteSpace=wrap;html=1;fontSize=18;" vertex="1" parent="cQ7loPx95OwYAi-lIVyv-1">
          <mxGeometry x="480" y="310" width="40" height="40" as="geometry" />
        </mxCell>
        <mxCell id="cQ7loPx95OwYAi-lIVyv-31" value="3" style="rounded=0;whiteSpace=wrap;html=1;fontSize=18;" vertex="1" parent="cQ7loPx95OwYAi-lIVyv-1">
          <mxGeometry x="520" y="310" width="40" height="40" as="geometry" />
        </mxCell>
        <mxCell id="cQ7loPx95OwYAi-lIVyv-32" value="4" style="rounded=0;whiteSpace=wrap;html=1;fontSize=18;" vertex="1" parent="cQ7loPx95OwYAi-lIVyv-1">
          <mxGeometry x="560" y="310" width="40" height="40" as="geometry" />
        </mxCell>
        <mxCell id="cQ7loPx95OwYAi-lIVyv-33" value="50" style="rounded=0;whiteSpace=wrap;html=1;fontSize=18;" vertex="1" parent="cQ7loPx95OwYAi-lIVyv-1">
          <mxGeometry x="600" y="310" width="40" height="40" as="geometry" />
        </mxCell>
        <mxCell id="cQ7loPx95OwYAi-lIVyv-34" value="0" style="rounded=0;whiteSpace=wrap;html=1;fontSize=18;fillColor=#d5e8d4;strokeColor=#82b366;" vertex="1" parent="cQ7loPx95OwYAi-lIVyv-1">
          <mxGeometry x="440" y="290" width="40" height="20" as="geometry" />
        </mxCell>
        <mxCell id="cQ7loPx95OwYAi-lIVyv-35" value="1" style="rounded=0;whiteSpace=wrap;html=1;fontSize=18;fillColor=#d5e8d4;strokeColor=#82b366;" vertex="1" parent="cQ7loPx95OwYAi-lIVyv-1">
          <mxGeometry x="480" y="290" width="40" height="20" as="geometry" />
        </mxCell>
        <mxCell id="cQ7loPx95OwYAi-lIVyv-36" value="2" style="rounded=0;whiteSpace=wrap;html=1;fontSize=18;fillColor=#d5e8d4;strokeColor=#82b366;" vertex="1" parent="cQ7loPx95OwYAi-lIVyv-1">
          <mxGeometry x="520" y="290" width="40" height="20" as="geometry" />
        </mxCell>
        <mxCell id="cQ7loPx95OwYAi-lIVyv-37" value="3" style="rounded=0;whiteSpace=wrap;html=1;fontSize=18;fillColor=#d5e8d4;strokeColor=#82b366;" vertex="1" parent="cQ7loPx95OwYAi-lIVyv-1">
          <mxGeometry x="560" y="290" width="40" height="20" as="geometry" />
        </mxCell>
        <mxCell id="cQ7loPx95OwYAi-lIVyv-38" value="4" style="rounded=0;whiteSpace=wrap;html=1;fontSize=18;fillColor=#d5e8d4;strokeColor=#82b366;" vertex="1" parent="cQ7loPx95OwYAi-lIVyv-1">
          <mxGeometry x="600" y="290" width="40" height="20" as="geometry" />
        </mxCell>
        <mxCell id="cQ7loPx95OwYAi-lIVyv-39" value="int length = 5" style="rounded=0;whiteSpace=wrap;html=1;fontSize=17;fontFamily=Ubuntu;fontSource=https%3A%2F%2Ffonts.googleapis.com%2Fcss%3Ffamily%3DUbuntu;" vertex="1" parent="cQ7loPx95OwYAi-lIVyv-1">
          <mxGeometry x="440" y="350" width="200" height="30" as="geometry" />
        </mxCell>
        <mxCell id="cQ7loPx95OwYAi-lIVyv-40" value="..." style="rounded=0;whiteSpace=wrap;html=1;fontSize=17;fontFamily=Ubuntu;fontSource=https%3A%2F%2Ffonts.googleapis.com%2Fcss%3Ffamily%3DUbuntu;" vertex="1" parent="cQ7loPx95OwYAi-lIVyv-1">
          <mxGeometry x="440" y="380" width="200" height="30" as="geometry" />
        </mxCell>
        <mxCell id="cQ7loPx95OwYAi-lIVyv-41" value="0xAF11" style="text;html=1;strokeColor=#6c8ebf;fillColor=#dae8fc;align=center;verticalAlign=middle;whiteSpace=wrap;rounded=0;fontFamily=Ubuntu;fontSource=https%3A%2F%2Ffonts.googleapis.com%2Fcss%3Ffamily%3DUbuntu;fontSize=17;" vertex="1" parent="cQ7loPx95OwYAi-lIVyv-1">
          <mxGeometry x="440" y="260" width="200" height="30" as="geometry" />
        </mxCell>
        <mxCell id="7yr2s4zhhVChdCvmTdEh-0" value="GC" style="shape=umlActor;verticalLabelPosition=bottom;verticalAlign=top;html=1;outlineConnect=0;fontFamily=Ubuntu;fontSource=https%3A%2F%2Ffonts.googleapis.com%2Fcss%3Ffamily%3DUbuntu;fontSize=18;" vertex="1" parent="cQ7loPx95OwYAi-lIVyv-1">
          <mxGeometry x="830" y="-10" width="30" height="60" as="geometry" />
        </mxCell>
      </root>
    </mxGraphModel>
  </diagram>
</mxfile>
